<?xml version="1.0" encoding="utf-8"?>
<!-- Generator: Adobe Illustrator 16.0.0, SVG Export Plug-In . SVG Version: 6.00 Build 0)  -->
<!DOCTYPE svg PUBLIC "-//W3C//DTD SVG 1.1//EN" "http://www.w3.org/Graphics/SVG/1.1/DTD/svg11.dtd">
<svg version="1.1" xmlns="http://www.w3.org/2000/svg" xmlns:xlink="http://www.w3.org/1999/xlink" x="0px" y="0px" width="512px"
	 height="512px" viewBox="0 0 512 512" enable-background="new 0 0 512 512" xml:space="preserve">
<g id="Capa_2">
</g>
<g id="Artwork">
</g>
<g id="Layer_3">
</g>
<g id="Layer_4">
</g>
<g id="Layer_5">
	<g>
		<path d="M256,129.56c-70.359,0-127.398,27.917-127.398,62.356c0,5.617,1.527,11.06,4.373,16.236
			c2.547,15.482,10.645,65.834,11.412,84.661c0.928,22.703,14.584,42.695,36.842,54.316c-1.375,2.162-2.121,4.418-2.121,6.742
			c0,15.778,33.582,28.568,75.006,28.568s75.006-12.79,75.006-28.568c0-1.805-0.459-3.568-1.299-5.279
			c23.967-11.357,38.76-32.098,39.791-55.779c0.846-19.397,9.738-72.219,12.094-85.951c2.406-4.789,3.693-9.794,3.693-14.946
			C383.398,157.477,326.359,129.56,256,129.56z M254.113,236.825c-55.943,0-101.295-19.147-101.295-42.766
			c0-23.62,45.352-42.767,101.295-42.767s101.295,19.146,101.295,42.767C355.408,217.678,310.057,236.825,254.113,236.825z"/>
		<path d="M272.371,165.372c5.377,0.923,6.998,3.691,3.949,7.499c0.125-0.005-7.018,8.391-12.357,12.625
			c-5.016,3.972-13.279,8.769-13.195,8.767c-4.006,2.442-7.473,0.469-7.547-4.419c-0.086-5.763,0.436-11.558,1.285-17.329
			c0.781-4.9,2.557-8.31,10.432-8.29C260.707,164.238,265.551,164.2,272.371,165.372z"/>
		<path d="M277.973,222.344c-6.959,1.031-10.063-1.709-7.857-7.603c-0.15,0.056,5.227-13.108,10.066-20.447
			c4.551-6.887,12.748-16.091,12.648-16.055c3.924-4.605,8.971-3.583,11.025,2.381c2.428,7.026,4.117,14.341,5.4,21.757
			c1.016,6.319,0.207,11.214-9.451,14.358C292.727,219.04,286.805,221.035,277.973,222.344z"/>
		<path d="M231.779,213.602c-0.352,4.896-2.688,6.592-6.365,4.197c0.014,0.112-8.135-5.542-12.398-9.948
			c-3.998-4.142-9.023-11.116-9.016-11.042c-2.539-3.37-1.08-6.65,3.291-7.146c5.152-0.587,10.389-0.632,15.631-0.381
			c4.457,0.266,7.666,1.556,8.344,8.608C231.764,203.057,232.225,207.392,231.779,213.602z"/>
	</g>
</g>
</svg>
