<?xml version="1.0" encoding="utf-8"?>
<!-- Generator: Adobe Illustrator 16.0.0, SVG Export Plug-In . SVG Version: 6.00 Build 0)  -->
<!DOCTYPE svg PUBLIC "-//W3C//DTD SVG 1.1//EN" "http://www.w3.org/Graphics/SVG/1.1/DTD/svg11.dtd">
<svg version="1.1" xmlns="http://www.w3.org/2000/svg" xmlns:xlink="http://www.w3.org/1999/xlink" x="0px" y="0px" width="512px"
	 height="512px" viewBox="0 0 512 512" enable-background="new 0 0 512 512" xml:space="preserve">
<g id="Capa_2">
</g>
<g id="Artwork">
</g>
<g id="Layer_3">
</g>
<g id="Layer_4">
</g>
<g id="Layer_5">
	<g>
		<path d="M265.009,137.347c-78.748,0-140.342,20.124-140.342,45.665c0,1.408,3.123,29.371,8.537,41.276
			c15.336,33.725,37.393,56.934,63.242,56.934h137.127c25.85,0,47.301-26.543,63.24-56.934
			c8.855-16.882,10.781-39.286,10.781-40.693C407.595,158.054,343.757,137.347,265.009,137.347z M265.009,197.344
			c-61.304,0-111-9.7-111-21.667c0-11.966,49.696-26.332,111-26.332s111,14.366,111,26.332
			C376.009,187.644,326.313,197.344,265.009,197.344z"/>
		<path d="M403.229,370.438c-0.961,3.156-4.324,4.93-7.472,3.939L91.753,278.762c-3.147-0.99-5.173-3.607-4.501-5.816
			c0.674-2.21,3.813-3.253,6.979-2.32l305.689,90.08c3.166,0.933,4.97,4.278,4.008,7.436L403.229,370.438z"/>
		<g>
			<path d="M157.017,307.675c-3.147-0.99-8.424-1.775-11.724-1.745l-45.089,0.409c-3.3,0.03-6,1.943-6,4.253s2.7,4.223,6,4.253
				l75.974,0.689c3.3,0.03,3.424-0.756,0.276-1.745L157.017,307.675z"/>
			<path d="M245.439,305.021c-3.3,0.03-3.41,0.818-0.244,1.751l27.125,7.992c3.166,0.933,8.456,1.721,11.756,1.751l134.801,1.224
				c3.3,0.03,6-2.646,6-5.945v-2.402c0-3.3-2.7-5.976-6-5.945L245.439,305.021z"/>
		</g>
	</g>
</g>
</svg>
