<?xml version="1.0" encoding="utf-8"?>
<!-- Generator: Adobe Illustrator 16.0.0, SVG Export Plug-In . SVG Version: 6.00 Build 0)  -->
<!DOCTYPE svg PUBLIC "-//W3C//DTD SVG 1.1//EN" "http://www.w3.org/Graphics/SVG/1.1/DTD/svg11.dtd">
<svg version="1.1" xmlns="http://www.w3.org/2000/svg" xmlns:xlink="http://www.w3.org/1999/xlink" x="0px" y="0px" width="512px"
	 height="512px" viewBox="0 0 512 512" enable-background="new 0 0 512 512" xml:space="preserve">
<g id="Capa_2">
</g>
<g id="Artwork">
</g>
<g id="Layer_3">
</g>
<g id="Layer_4">
</g>
<g id="Layer_5">
	<g>
		<g>
			<path d="M155.024,182.932c-0.451,0.343-0.067,0.85-0.067,0.85l158.37,199.358c0,0,0.291,0.458,0.656,0.183
				c3.287-2.498,9.889-7.51,13.207-10.029c0.301-0.228-0.035-0.606-0.035-0.606L177.782,166.738c0,0-0.522-0.688-1.079-0.266
				C171.168,170.676,160.444,178.817,155.024,182.932z"/>
			<path d="M168.188,155.024c0.82-0.624,0.074-1.412,0.074-1.412l-28.707-39.581c-4.154-5.728-12.163-6.913-17.798-2.633
				l-4.914,3.729c-5.636,4.28-6.646,12.313-2.243,17.853l30.352,38.206c0,0,0.736,0.922,1.411,0.41
				C151.755,167.502,162.797,159.117,168.188,155.024z M132.62,142.95c1.541-0.841,1.424-1.933-0.262-2.428
				c-1.683-0.495-2.823-1.707-2.533-2.694c0.291-0.989,1.906-1.393,3.59-0.896c1.684,0.494,2.373-0.363,1.532-1.903
				s-0.791-3.205,0.114-3.698c0.902-0.493,2.33,0.365,3.172,1.905c0.84,1.542,1.934,1.424,2.428-0.262
				c0.494-1.683,1.709-2.823,2.694-2.534c0.989,0.29,1.393,1.906,0.898,3.591c-0.497,1.685,0.36,2.374,1.899,1.532
				c1.541-0.841,3.206-0.79,3.699,0.113c0.494,0.904-0.363,2.332-1.904,3.173c-1.54,0.841-1.424,1.933,0.262,2.428
				c1.684,0.495,2.824,1.707,2.533,2.694c-0.29,0.989-1.905,1.393-3.59,0.896c-1.684-0.494-2.375,0.36-1.533,1.902
				c0.842,1.539,0.79,3.204-0.112,3.698c-0.903,0.494-2.33-0.364-3.173-1.904c-0.841-1.54-1.934-1.423-2.428,0.261
				c-0.496,1.684-1.708,2.824-2.694,2.535c-0.989-0.29-1.392-1.906-0.897-3.591c0.496-1.685-0.36-2.374-1.901-1.532
				c-1.54,0.842-3.205,0.79-3.698-0.113C130.222,145.219,131.08,143.791,132.62,142.95z"/>
			<path d="M337.938,388.084c0.278-0.212,0.04-0.473,0.04-0.473l-6.336-8.735c0,0-0.158-0.21-0.363-0.054
				c-3.315,2.517-9.766,7.414-13.081,9.933c-0.252,0.19-0.051,0.456-0.051,0.456l6.685,8.407c0,0,0.163,0.293,0.443,0.08
				C328.502,395.247,334.771,390.487,337.938,388.084z"/>
			<path d="M329.53,403.101c-0.213,0.16-0.005,0.434-0.005,0.434l35.361,44.508c4.401,5.54,10.356,8.284,13.233,6.101
				c2.878-2.186,1.833-8.658-2.321-14.387l-33.376-46.02c0,0-0.205-0.27-0.453-0.081C338.858,396.017,332.64,400.738,329.53,403.101
				z"/>
		</g>
		<g>
			<path d="M228.237,134.883c-0.507,0.254-0.222,0.824-0.222,0.824l118.973,225.1c0,0,0.202,0.504,0.61,0.3
				c3.691-1.849,11.102-5.562,14.828-7.427c0.337-0.168,0.076-0.603,0.076-0.603L253.588,123.155c0,0-0.387-0.772-1.012-0.46
				C246.361,125.809,234.321,131.838,228.237,134.883z"/>
			<path d="M246.313,109.876c0.921-0.462,0.334-1.374,0.334-1.374l-20.934-44.189c-3.029-6.394-10.682-9.033-17.009-5.863
				l-5.516,2.761c-6.327,3.17-8.798,10.88-5.491,17.134l22.801,43.142c0,0,0.556,1.041,1.313,0.661
				C227.863,119.116,240.261,112.906,246.313,109.876z M213.575,91.461c1.669-0.542,1.756-1.636,0.189-2.433
				c-1.563-0.798-2.462-2.198-1.994-3.115c0.467-0.919,2.129-1.019,3.694-0.221c1.563,0.795,2.399,0.08,1.855-1.589
				s-0.188-3.297,0.792-3.613c0.979-0.318,2.225,0.786,2.768,2.456s1.64,1.756,2.435,0.189c0.796-1.563,2.199-2.462,3.114-1.995
				c0.92,0.467,1.019,2.129,0.224,3.694c-0.798,1.564-0.083,2.399,1.584,1.856c1.671-0.543,3.298-0.187,3.615,0.792
				c0.319,0.979-0.786,2.225-2.455,2.768s-1.756,1.638-0.19,2.435c1.563,0.796,2.462,2.197,1.994,3.115
				c-0.467,0.918-2.128,1.017-3.692,0.221c-1.563-0.796-2.401-0.084-1.858,1.586c0.545,1.67,0.188,3.296-0.79,3.615
				c-0.979,0.319-2.224-0.786-2.769-2.455c-0.542-1.669-1.638-1.755-2.436-0.191c-0.796,1.563-2.198,2.462-3.113,1.996
				c-0.92-0.468-1.019-2.13-0.223-3.694c0.799-1.565,0.084-2.399-1.585-1.856c-1.67,0.544-3.296,0.188-3.614-0.792
				C210.8,93.25,211.905,92.005,213.575,91.461z"/>
			<path d="M370.268,370.197c0.313-0.158,0.126-0.457,0.126-0.457l-4.621-9.754c0,0-0.115-0.234-0.346-0.119
				c-3.722,1.863-10.963,5.491-14.686,7.355c-0.283,0.142-0.134,0.438-0.134,0.438l5.023,9.495c0,0,0.105,0.318,0.421,0.16
				C359.675,375.5,366.713,371.976,370.268,370.197z"/>
			<path d="M359.239,383.408c-0.238,0.119-0.084,0.426-0.084,0.426l26.565,50.257c3.306,6.254,8.655,10.049,11.885,8.432
				c3.231-1.617,3.396-8.173,0.366-14.567l-24.336-51.377c0,0-0.152-0.304-0.432-0.164
				C369.713,378.163,362.73,381.66,359.239,383.408z"/>
		</g>
	</g>
</g>
</svg>
