<?xml version="1.0" encoding="utf-8"?>
<!-- Generator: Adobe Illustrator 16.0.0, SVG Export Plug-In . SVG Version: 6.00 Build 0)  -->
<!DOCTYPE svg PUBLIC "-//W3C//DTD SVG 1.1//EN" "http://www.w3.org/Graphics/SVG/1.1/DTD/svg11.dtd">
<svg version="1.1" xmlns="http://www.w3.org/2000/svg" xmlns:xlink="http://www.w3.org/1999/xlink" x="0px" y="0px" width="512px"
	 height="512px" viewBox="0 0 512 512" enable-background="new 0 0 512 512" xml:space="preserve">
<g id="Capa_2">
</g>
<g id="Artwork">
</g>
<g id="Layer_3">
</g>
<g id="Layer_4">
</g>
<g id="Layer_5">
	<g>
		<path d="M256.785,265.266l123.077-159.39c3.58-4.77,2.65-10.95-2.21-14.695c-2.005-1.546-4.271-2.363-6.553-2.363
			c-3.149,0-6.12,1.55-8.159,4.266l-125.391,171.91c0,0-0.662,1.222,0.78,1.222c4.2,0,12.451,0,16.524,0
			C256.021,266.215,256.785,265.266,256.785,265.266z"/>
		<path d="M363.576,217.347c0,0-0.971-2.841-3.114-1.048c-4.025,3.367-11.789,10.436-15.68,13.956
			c-1.768,1.6-0.765,3.542-0.765,3.542l15.611,37.145c2.341,5.57-0.688,10.128-6.729,10.128H139.182
			c-6.042,0-9.07-4.558-6.729-10.128l18.925-45.031c2.341-5.57,9.2-10.128,15.242-10.128c0,0,66.81,0,89.08,0
			c1.763,0,2.867-1.104,3.411-1.918c2.333-3.487,8.418-11.725,8.418-11.725s2.476-3.269-2.925-3.269c-29.337,0-117.349,0-117.349,0
			c-6.042,0-12.901,4.558-15.242,10.128l-24.465,58.214c-2.341,5.57-3.239,14.966-1.996,20.878l28.458,124.341
			c1.243,5.913,7.204,10.751,13.246,10.751h197.57c6.042,0,12.003-4.838,13.247-10.751l28.457-124.341
			c1.244-5.912,0.345-15.308-1.996-20.878L363.576,217.347z"/>
		<path d="M403.848,147.966c-2.163-2.347-4.811-3.586-7.657-3.586c-2.642,0-5.287,1.089-7.463,3.079l-89.131,83.771
			c0,0-1.337,1.403-1.754,1.897c-6.562,7.757-24.84,32.168-24.84,32.168s-0.548,0.92,0.344,0.92c3.443,0,9.91,0,13.269,0
			c0.503,0,0.921-0.371,0.921-0.371l116.105-103.341c2.089-1.91,3.251-4.266,3.359-6.811
			C407.115,152.998,406.025,150.326,403.848,147.966z"/>
	</g>
</g>
</svg>
