<?xml version="1.0" encoding="utf-8"?>
<!-- Generator: Adobe Illustrator 16.0.0, SVG Export Plug-In . SVG Version: 6.00 Build 0)  -->
<!DOCTYPE svg PUBLIC "-//W3C//DTD SVG 1.1//EN" "http://www.w3.org/Graphics/SVG/1.1/DTD/svg11.dtd">
<svg version="1.1" xmlns="http://www.w3.org/2000/svg" xmlns:xlink="http://www.w3.org/1999/xlink" x="0px" y="0px" width="512px"
	 height="512px" viewBox="0 0 512 512" enable-background="new 0 0 512 512" xml:space="preserve">
<g id="Capa_2">
</g>
<g id="Artwork">
</g>
<g id="Layer_3">
</g>
<g id="Layer_4">
</g>
<g id="Layer_5">
	<g>
		<path d="M339.985,257.65c3.194-0.828,5.808-4.206,5.808-7.506V122.333c0-3.3-1.502-3.756-3.337-1.014L235.893,280.528
			c-1.835,2.742-0.724,4.309,2.47,3.479L339.985,257.65z"/>
		<path d="M152.964,392.473c-3.3,0-4.313-2.108-2.251-4.685l67.972-84.934c2.062-2.576,6.373-5.32,9.581-6.097l193.6-46.883
			c3.208-0.776,4.601,0.991,3.098,3.929l-68.245,133.328c-1.503,2.938-5.434,5.341-8.734,5.341H152.964z"/>
		<path d="M143.353,234.118c-3.3,0-6.01,2.7-6.021,6l-0.52,145.033c-0.012,3.3,1.672,3.897,3.741,1.327l72.128-89.58
			c2.069-2.57,3.033-7.273,2.141-10.45l-13.066-46.554c-0.892-3.177-4.322-5.776-7.622-5.776H143.353z"/>
		<path d="M172.741,128.045c-0.892-3.177-3.365-3.715-5.496-1.195l-79.677,94.21c-2.131,2.52-1.174,4.581,2.125,4.581h104.441
			c3.3,0,5.271-2.6,4.378-5.776L172.741,128.045z"/>
	</g>
</g>
</svg>
