<?xml version="1.0" encoding="utf-8"?>
<!-- Generator: Adobe Illustrator 16.0.0, SVG Export Plug-In . SVG Version: 6.00 Build 0)  -->
<!DOCTYPE svg PUBLIC "-//W3C//DTD SVG 1.1//EN" "http://www.w3.org/Graphics/SVG/1.1/DTD/svg11.dtd">
<svg version="1.1" xmlns="http://www.w3.org/2000/svg" xmlns:xlink="http://www.w3.org/1999/xlink" x="0px" y="0px" width="512px"
	 height="512px" viewBox="0 0 512 512" enable-background="new 0 0 512 512" xml:space="preserve">
<g id="Capa_2">
</g>
<g id="Artwork">
</g>
<g id="Layer_3">
</g>
<g id="Layer_4">
</g>
<g id="Layer_5">
	<g>
		<g>
			<path d="M330.548,186.59c7.024-12.367,24.767-29.363,18.075-62.254c-6.69-32.887,42.9,33.736,12.425,93.479
				c-10.724,21.018-34.17,22.012-40.225,15.988C314.767,227.783,325.488,195.498,330.548,186.59z"/>
			<path d="M319.02,196.957c0.877,1.125,1.457-1.457,1.891-2.679c2.21-6.225,4.475-11.397,6.045-14.163
				c0.642-1.129,1.342-2.263,2.082-3.411c0.454-0.704,1.422-1.997,1.257-3.493c-0.649-5.439-1.469-18.383,5.646-22.451
				c8.843-5.057-19.223-17.463-23.276,18.521C311.379,180.672,315.825,192.87,319.02,196.957z"/>
		</g>
		<g>
			<path d="M181.452,186.59c-7.024-12.367-24.767-29.363-18.075-62.254c6.69-32.887-42.9,33.736-12.425,93.479
				c10.723,21.018,34.17,22.012,40.225,15.988C197.233,227.783,186.511,195.498,181.452,186.59z"/>
			<path d="M193.258,196.77c-0.799,1.021-1.292,0.039-1.501-0.573c-2.412-7.073-4.983-13.035-6.712-16.081
				c-0.739-1.301-1.554-2.606-2.421-3.934c-0.347-0.532-1.165-1.35-0.967-2.479c0.649-5.44,1.518-18.874-5.596-22.942
				c-8.843-5.057,19.223-17.463,23.276,18.521C200.621,180.672,196.453,192.683,193.258,196.77z"/>
		</g>
		<g>
			<path d="M262.43,361.043c-3.537-4.566-9.324-4.566-12.861,0l-33.553,43.328c-3.537,4.564-2.789,6.773,1.662,4.902
				c0,0,27.144-10.615,31.097-10.615c3.226,0,3.601,18.861,8.351,18.861c5.75,0,4.792-18.65,8.402-18.65
				c3.304,0,28.8,10.364,28.8,10.364c4.447,1.894,5.192-0.298,1.655-4.862L262.43,361.043z"/>
			<path d="M255.72,344.689c4.402,0,8.598,2.287,11.815,6.439l12.75,16.463c0.924,1.178,2.145,0.127,2.647-0.529
				c4.326-5.647,6.899-12.691,6.899-20.338c0-18.566-15.147-33.619-33.832-33.619s-33.832,15.053-33.832,33.619
				c0,7.326,2.363,14.099,6.367,19.62c0.572,0.789,2.799,1.3,3.716-0.167l11.653-15.047
				C247.122,346.977,251.318,344.689,255.72,344.689z"/>
			<path d="M256,261.41c-23.605,0-42.74,19.016-42.74,42.473c0,6.368,1.419,12.403,3.952,17.821
				c0.504,1.078,2.248,2.629,3.221,0.113c6.991-14.797,19.385-21.643,35.847-21.643c16.265,0,28.64,6.882,35.713,21.388
				c0.717,1.612,2.429,0.961,2.86,0.028c2.494-5.39,3.888-11.387,3.888-17.708C298.74,280.426,279.605,261.41,256,261.41z"/>
			<path d="M284.299,163.823c-0.548-0.574-0.439-1.511-0.439-1.616c0-6.516-6.126-11.77-14.947-12.084
				c-0.891-0.166-0.547-0.834-0.37-1.225c2.524-5.575,5.303-11.174,8.326-16.523c16.857-29.83,64.464-35.223,64.464-35.223
				s8.044-2.111,2.705-2.393c-17.771-0.937-70.095-2.935-87.541,58.123c-0.162,0.543-0.631,0.668-0.991,0
				c-17.569-61.486-70.506-59.054-87.909-58.078c-4.22,0.236-1.525,1.355-1.525,1.355s52.204,6.385,69.061,36.215
				c2.961,5.239,5.687,10.716,8.168,16.176c0.23,0.508,0.909,1.656-0.535,1.6c-8.82,0.314-14.625,5.541-14.625,12.057
				c0,0.425,0.069,1.167-0.441,1.615c-14.075,9.313-22.866,27.563-22.866,59.438c0,15.701,2.265,30.461,6.242,43.33
				c0.839,2.717,2.709,7.867,5.859,3.164c6.775-11.047,21.683-20.605,40.045-20.605c17.56,0,31.563,7.226,38.701,18.848
				c3.06,5.211,5.229-1.247,6.087-4.273c3.451-12.176,5.399-25.914,5.399-40.463C307.167,191.388,298.374,173.136,284.299,163.823z"
				/>
		</g>
	</g>
</g>
</svg>
