<?xml version="1.0" encoding="utf-8"?>
<!-- Generator: Adobe Illustrator 16.0.0, SVG Export Plug-In . SVG Version: 6.00 Build 0)  -->
<!DOCTYPE svg PUBLIC "-//W3C//DTD SVG 1.1//EN" "http://www.w3.org/Graphics/SVG/1.1/DTD/svg11.dtd">
<svg version="1.1" xmlns="http://www.w3.org/2000/svg" xmlns:xlink="http://www.w3.org/1999/xlink" x="0px" y="0px" width="512px"
	 height="512px" viewBox="0 0 512 512" enable-background="new 0 0 512 512" xml:space="preserve">
<g id="Capa_2">
</g>
<g id="Artwork">
</g>
<g id="Layer_3">
</g>
<g id="Layer_4">
</g>
<g id="Layer_5">
	<g>
		<path d="M265.978,367.358c0.07,5.5-2.685,10.035-6.122,10.079c-3.437,0.043-6.307-4.42-6.377-9.919l-7.728-292.359
			c-0.07-5.5,3.78-10.079,10.122-10.079c6.158,0,10.307,4.42,10.377,9.919L265.978,367.358z"/>
		<path d="M410.931,435.717c-15.196-30.073-14.159-27.811-14.159-134.033c0-104.395-2.508-99.318,12.945-127.338
			c4.556-8.262-1.74-14.428-10.105-10.065c-16.18,8.439-21.459,11.28-38.676,12.032c-0.702,0.031-2.254,0.007-2.468,1.678
			l-44.152,233.494c-1.588,8.948-7.718,15.193-14.922,15.193c-0.835,0-1.672-0.088-2.489-0.262
			c-7.793-1.659-12.365-10.382-10.651-20.305l36.724-227.876c0,0,0.33-1.922-1.792-1.922c-12.662,0-25.868-0.465-45.784-0.465
			c-0.688,0-1.245,0.316-1.245,1.191l-0.176,190.277c0.104,10.064-6.045,18.02-14.02,18.122l-0.152,0.001
			c-8.022,0-14.172-7.629-14.326-17.758l-5.04-190.674c-0.073-1.062-0.916-1.169-1.355-1.167
			c-104.353,0.407-96.35,4.271-126.697-11.558c-8.365-4.363-14.662,1.803-10.105,10.065c15.453,28.02,12.945,22.944,12.945,127.338
			c0,106.223,1.037,103.96-14.159,134.033c-4.255,8.421,4.371,13.508,13.193,10.165c33.22-12.589,36.713-14.708,141.477-13.324
			c0.088,0.001,0.172,0.002,0.26,0.003c0.088-0.001,0.172-0.002,0.26-0.003c104.764-1.385,108.257,0.735,141.477,13.324
			C406.56,449.225,415.186,444.138,410.931,435.717z"/>
		<path d="M306.444,410.048c-0.949,5.417-4.493,9.261-7.876,8.542c-3.383-0.72-5.375-5.741-4.426-11.159l46.141-286.312
			c0.949-5.418,5.249-9.675,11.876-8.542c6.388,1.092,9.375,5.741,8.426,11.159L306.444,410.048z"/>
	</g>
</g>
</svg>
