<?xml version="1.0" encoding="utf-8"?>
<!-- Generator: Adobe Illustrator 16.0.0, SVG Export Plug-In . SVG Version: 6.00 Build 0)  -->
<!DOCTYPE svg PUBLIC "-//W3C//DTD SVG 1.1//EN" "http://www.w3.org/Graphics/SVG/1.1/DTD/svg11.dtd">
<svg version="1.1" xmlns="http://www.w3.org/2000/svg" xmlns:xlink="http://www.w3.org/1999/xlink" x="0px" y="0px" width="512px"
	 height="512px" viewBox="0 0 512 512" enable-background="new 0 0 512 512" xml:space="preserve">
<g id="Capa_2">
</g>
<g id="Artwork">
</g>
<g id="Layer_3">
</g>
<g id="Layer_4">
</g>
<g id="Layer_5">
	<path d="M330.235,301.079c150.032,44.337,102.518-196.389-18.502-94.779c-5.962,5.006-7.902,3.927-2.619-2.452
		c99.273-119.87-149.262-162.51-94.235-9.84c1.292,3.584,0.052,4.047-1.998,0.623c-85.924-143.547-208.973,90.686-42.598,83.338
		c6.982-0.308,7.416,1.326,0.668,2.887c-158.516,36.687,43.245,218.565,68.582,66.78c1.181-7.072,2.127-6.007,2.385,1.587
		c4.844,142.888,213.982,23.046,87.5-45.251C321.806,299.862,321.947,298.629,330.235,301.079z M302.334,267.721l-0.259,1.715
		c-0.656,4.351-4.753,7.374-9.104,6.717l-14.089-2.125c-4.351-0.656-5.773,1.704-3.161,5.244l8.459,11.465
		c2.612,3.541,1.853,8.575-1.688,11.188l-1.396,1.03c-3.541,2.613-8.575,1.853-11.187-1.688l-8.46-11.465
		c-2.612-3.541-5.287-2.878-5.943,1.473l-2.125,14.089c-0.656,4.351-4.753,7.374-9.104,6.717l-1.715-0.259
		c-4.351-0.656-7.374-4.753-6.717-9.104l2.125-14.088c0.656-4.351-1.703-5.773-5.244-3.161l-11.465,8.459
		c-3.541,2.612-8.575,1.853-11.188-1.688l-1.03-1.396c-2.612-3.541-1.853-8.575,1.688-11.187l11.465-8.459
		c3.541-2.612,2.877-5.287-1.473-5.943l-14.089-2.125c-4.351-0.656-7.374-4.753-6.717-9.104l0.259-1.715
		c0.656-4.351,4.752-7.374,9.103-6.717l14.089,2.125c4.351,0.656,5.773-1.704,3.161-5.244l-8.459-11.465
		c-2.612-3.541-1.853-8.575,1.688-11.188l1.396-1.03c3.541-2.613,8.575-1.853,11.187,1.688l8.46,11.465
		c2.612,3.541,5.287,2.877,5.943-1.473l2.125-14.09c0.657-4.351,4.753-7.373,9.104-6.717l1.715,0.259
		c4.351,0.657,7.374,4.753,6.717,9.104l-2.125,14.088c-0.656,4.351,1.704,5.773,5.244,3.161l11.465-8.459
		c3.541-2.612,8.575-1.853,11.187,1.688l1.03,1.396c2.613,3.541,1.853,8.575-1.688,11.187l-11.465,8.459
		c-3.541,2.612-2.878,5.287,1.473,5.943l14.088,2.125C299.968,259.273,302.99,263.37,302.334,267.721z"/>
</g>
</svg>
