<?xml version="1.0" encoding="utf-8"?>
<!-- Generator: Adobe Illustrator 16.0.0, SVG Export Plug-In . SVG Version: 6.00 Build 0)  -->
<!DOCTYPE svg PUBLIC "-//W3C//DTD SVG 1.1//EN" "http://www.w3.org/Graphics/SVG/1.1/DTD/svg11.dtd">
<svg version="1.1" xmlns="http://www.w3.org/2000/svg" xmlns:xlink="http://www.w3.org/1999/xlink" x="0px" y="0px" width="512px"
	 height="512px" viewBox="0 0 512 512" enable-background="new 0 0 512 512" xml:space="preserve">
<g id="Capa_2">
</g>
<g id="Artwork">
</g>
<g id="Layer_3">
</g>
<g id="Layer_4">
</g>
<g id="Layer_5">
	<g>
		<path d="M321.26,155.847c2.661,0.695,4.964-0.983,5.116-3.729c0,0,1.895-33.994,2.775-43.373c0.74-7.897,5.818-47.92,5.818-47.92
			c0.346-2.729-1.615-4.793-4.357-4.588c0,0-10.139,0.759-15.119,0.292c-5.001-0.468-14.881-3.109-14.881-3.109
			c-2.657-0.71-4.967,0.954-5.133,3.699c0,0-2.414,39.795-3.141,47.534c-0.895,9.537-5.404,43.764-5.404,43.764
			c-0.359,2.727,1.589,4.774,4.33,4.55c0,0,9.369-0.765,14.098-0.354C310.622,153.07,321.26,155.847,321.26,155.847z"/>
		<path d="M310.505,270.461c2.661,0.694,4.963-0.984,5.116-3.729c0,0,1.895-33.995,2.774-43.374
			c0.741-7.897,5.818-47.92,5.818-47.92c0.347-2.729-1.613-4.793-4.356-4.587c0,0-10.139,0.758-15.119,0.292
			c-5.001-0.469-14.882-3.11-14.882-3.11c-2.656-0.71-4.966,0.954-5.133,3.699c0,0-2.414,39.795-3.14,47.535
			c-0.896,9.536-5.405,43.764-5.405,43.764c-0.358,2.727,1.59,4.773,4.331,4.55c0,0,9.369-0.766,14.097-0.354
			C299.866,267.684,310.505,270.461,310.505,270.461z"/>
		<path d="M299.75,385.074c2.661,0.694,4.963-0.983,5.116-3.729c0,0,1.895-33.995,2.774-43.373
			c0.741-7.898,5.818-47.921,5.818-47.921c0.347-2.728-1.614-4.792-4.356-4.587c0,0-10.139,0.758-15.119,0.292
			c-5.002-0.468-14.881-3.109-14.881-3.109c-2.657-0.711-4.967,0.954-5.134,3.699c0,0-2.414,39.794-3.14,47.534
			c-0.896,9.536-5.405,43.764-5.405,43.764c-0.359,2.727,1.59,4.774,4.331,4.55c0,0,9.369-0.766,14.098-0.354
			C289.111,382.297,299.75,385.074,299.75,385.074z"/>
		<path d="M372.604,205.453c-16.122,14.607-36.383,20.17-38.537,18.288c-2.188-1.911,3.726-20.004,19.849-34.612
			c16.123-14.607,36.35-20.199,38.537-18.288C394.795,172.888,388.726,190.845,372.604,205.453z"/>
		<path d="M376.31,246.039c-17.223,0.931-31.795-7.262-31.979-9.943c-0.186-2.722,13.168-12.383,30.391-13.313
			c17.223-0.932,31.793,7.22,31.979,9.942C406.899,235.641,393.533,245.107,376.31,246.039z"/>
		<path d="M342.346,269.823c-7.639-12.14-7.856-24.956-6.065-25.848c1.818-0.905,13.957,5.975,21.596,18.114
			s7.884,24.942,6.065,25.848C361.994,288.907,349.984,281.964,342.346,269.823z"/>
		<path d="M186.416,256.008c2.681-0.612,3.948-3.163,2.816-5.67c0,0-12.428-27.52-15.627-35.385
			c-2.694-6.623-15.117-40.274-15.117-40.274c-0.952-2.579-3.645-3.506-5.982-2.058c0,0-7.372,4.565-11.548,6.266
			c-4.193,1.706-12.711,3.599-12.711,3.599c-2.685,0.596-3.965,3.139-2.846,5.65c0,0,14.428,32.373,17.068,38.864
			c3.252,7.997,13.72,36.777,13.72,36.777c0.94,2.584,3.614,3.501,5.942,2.037c0,0,6.755-4.248,10.707-5.887
			C177.234,258.104,186.416,256.008,186.416,256.008z"/>
		<path d="M225.508,352.125c2.681-0.612,3.948-3.164,2.816-5.67c0,0-12.428-27.521-15.626-35.385
			c-2.694-6.624-15.117-40.274-15.117-40.274c-0.952-2.58-3.645-3.506-5.982-2.059c0,0-7.372,4.565-11.549,6.266
			c-4.193,1.707-12.711,3.599-12.711,3.599c-2.684,0.597-3.965,3.14-2.846,5.651c0,0,14.429,32.372,17.068,38.863
			c3.253,7.997,13.721,36.777,13.721,36.777c0.94,2.584,3.613,3.501,5.941,2.037c0,0,6.756-4.248,10.708-5.887
			C216.327,354.222,225.508,352.125,225.508,352.125z"/>
		<path d="M264.601,448.241c2.681-0.612,3.948-3.163,2.816-5.67c0,0-12.428-27.52-15.627-35.385
			c-2.693-6.623-15.116-40.274-15.116-40.274c-0.953-2.579-3.646-3.506-5.983-2.058c0,0-7.371,4.565-11.548,6.266
			c-4.193,1.706-12.711,3.599-12.711,3.599c-2.685,0.596-3.965,3.139-2.846,5.65c0,0,14.428,32.373,17.068,38.863
			c3.253,7.998,13.721,36.778,13.721,36.778c0.939,2.584,3.613,3.501,5.941,2.037c0,0,6.755-4.249,10.707-5.887
			C255.419,450.338,264.601,448.241,264.601,448.241z"/>
		<path d="M123.855,303.196c13.533-8.322,29.256-9.104,30.68-7.315c1.446,1.814-4.796,14.499-18.329,22.821
			s-29.234,9.132-30.68,7.316C103.978,324.074,110.321,311.519,123.855,303.196z"/>
		<path d="M135.127,265.811c11.33,7.508,15.526,19.406,14.031,21.148c-1.519,1.77-15.67,1.471-27-6.036
			c-11.331-7.507-15.55-19.38-14.032-21.148C109.752,257.88,123.796,258.304,135.127,265.811z"/>
	</g>
</g>
</svg>
