<?xml version="1.0" encoding="utf-8"?>
<!-- Generator: Adobe Illustrator 18.1.1, SVG Export Plug-In . SVG Version: 6.00 Build 0)  -->
<svg version="1.1" id="Capa_1" xmlns="http://www.w3.org/2000/svg" xmlns:xlink="http://www.w3.org/1999/xlink" x="0px" y="0px"
	 viewBox="0 0 612 612" enable-background="new 0 0 612 612" xml:space="preserve">
<path d="M260.9,247.7c4,5.8,31.7,47.3-25.3,72c-0.5,0.3-1.5,0.1-1-0.7c0,0,13.9-11.8,22.1-33.1c6.2-15.9,3.6-27,2.9-38.4
	C259.6,247.1,260,246.3,260.9,247.7z M495.2,365.8C465.4,460.7,356.1,511,251,478C146,445,85,341.3,114.8,246.3
	C144.6,151.3,254,101,359,134C464.1,167,525,270.9,495.2,365.8z M177.7,204c22.2-22.7,75.5-49,151.2-32
	c42.6,9.6,68.5,31.6,83.4,46.3c5,4.9,6.8,5.4,4.8,2.4c-18.5-27.9-47.5-50.3-83.4-61.7c-64.2-20.2-130.5,1.7-164.1,49.5
	C167.8,211,170.9,211,177.7,204z M446.8,303.4c-4,0.7-9.1,1.9-15.8,3.8c-14.3,4.2-42.3,8.4-42.3,8.4s-5.2,1.2-6.9-1.3
	c-9.6-14.5-26.9-35.4-51.4-52.6c-0.4-0.2-31.9-21.9-52-25.1c-56.7-15.6-107.7,13.6-112.8,29.9c-3.5,11,0.1,20.2,18.5,37.2
	c0.5,0.1,14.2,12.3,15.3,13.1c0,0,12.2,12.4,34.7,22.2c33,14.3,71.2,21.8,132.8,3.8c3.5-1.1,4.3-0.5,9.2,3.9
	c9.3,8.5,49.8,43,54.7,40.3c0.5-0.2,0.6-0.7,0.5-1.4c-2.1-15.2-21.2-33.6-6.6-49.4c1.4-1.6,10-7.6,18-14.2c1.8-1.4,3.6-3,5.3-4.4
	l0.1-0.1C448.4,317.3,467.6,300.9,446.8,303.4z M222.1,259.6c-4-1.2-8.2,1-9.5,5.1c-1.3,4.1,0.9,8.4,4.8,9.6s8.2-1,9.5-5.1
	C228.2,265.1,226.1,260.8,222.1,259.6z M86.3,229.9c3.8-12.2,14.8-20.2,26.8-20.9c1,0,3-0.1,4.3-2.2c3.6-5.7,4.7-7.3,9-12.6
	c0.8-1,0.4-2-0.1-2.2c-24.4-6-49.7,8-57.4,32.3L62,246c-7.7,24.3,5,50.1,28.3,59.2c0.5,0.2,1.7,0,1.3-1.1c-0.4-6.7-0.4-10.8,0-17.5
	c0.1-1-0.6-1.6-1-1.8c-10.3-7.3-15.3-20.7-11.2-33.3L86.3,229.9z M518.8,313.1c-0.1,0-0.8,0-0.6,0.8c0.5,6.3,0.5,11.7,0.2,17.9
	c0,0.2,0,0.8,0.8,1.3c12.3,6.7,17.7,20.9,13.4,34.8l-6.8,21.6c-4.3,13.7-17.8,22.2-31.7,20.8c-3.5,5.6-7.3,10.9-11.5,16
	c0.1,0,0.1,0,0.2,0.1c25.3,7.9,52.4-6.2,60.2-31.4l6.8-21.6C557.9,348,544.1,321,518.8,313.1z"/>
</svg>
