<?xml version="1.0" encoding="utf-8"?>
<!-- Generator: Adobe Illustrator 16.0.0, SVG Export Plug-In . SVG Version: 6.00 Build 0)  -->
<!DOCTYPE svg PUBLIC "-//W3C//DTD SVG 1.1//EN" "http://www.w3.org/Graphics/SVG/1.1/DTD/svg11.dtd">
<svg version="1.1" xmlns="http://www.w3.org/2000/svg" xmlns:xlink="http://www.w3.org/1999/xlink" x="0px" y="0px" width="512px"
	 height="512px" viewBox="0 0 512 512" enable-background="new 0 0 512 512" xml:space="preserve">
<g id="Capa_2">
</g>
<g id="Artwork">
</g>
<g id="Layer_3">
</g>
<g id="Layer_4">
</g>
<g id="Layer_5">
	<g>
		<path d="M256.667,137.21c-79.726,0.095-161.584,142.686-139.437,186.618c35.978,71.37,252.876,64.522,278.523-0.263
			C413.889,277.757,337.45,137.114,256.667,137.21z M368.698,312.75c-5.663,14.305-22.993,25.075-45.718,31.968
			c-11.361,3.447-24.072,5.924-37.348,7.39c-9.344,1.031-18.967,1.551-28.596,1.565c-49.028,0.442-98.713-12.472-112.95-40.713
			c-8.85-17.556,3.081-55.093,25.188-88.251s54.391-61.936,86.249-61.974c0.341,0,0.682,0.021,1.022,0.027
			c0.333-0.006,0.666-0.026,0.998-0.027c16.14-0.019,32.063,7.06,46.642,18.26c14.58,11.2,27.815,26.522,38.58,42.992
			C364.296,256.924,375.945,294.447,368.698,312.75z"/>
		<path d="M202.378,272.318c0-3.335,2.363-7.428,5.251-9.096l13.422-7.749c2.888-1.668,7.614-1.668,10.502,0l13.422,7.749
			c2.888,1.667,5.251,5.76,5.251,9.096v15.498c0,3.335-2.363,7.428-5.251,9.096l-13.422,7.749c-2.888,1.667-7.614,1.667-10.502,0
			l-13.422-7.749c-2.888-1.668-5.251-5.761-5.251-9.096V272.318z"/>
		<path d="M266.378,273.614c0-2.778,1.968-6.186,4.373-7.575l11.178-6.454c2.405-1.389,6.342-1.389,8.747,0l11.178,6.454
			c2.405,1.389,4.373,4.797,4.373,7.575v12.907c0,2.777-1.968,6.186-4.373,7.575l-11.178,6.454c-2.405,1.389-6.342,1.389-8.747,0
			l-11.178-6.454c-2.405-1.389-4.373-4.797-4.373-7.575V273.614z"/>
		<path d="M233.545,224.354c0-3.335,2.363-7.428,5.251-9.095l10.727-6.193c2.888-1.667,7.615-1.667,10.502,0l10.728,6.193
			c2.888,1.667,5.251,5.76,5.251,9.095v12.387c0,3.335-2.363,7.428-5.251,9.096l-10.728,6.193c-2.888,1.667-7.614,1.667-10.502,0
			l-10.727-6.193c-2.888-1.668-5.251-5.761-5.251-9.096V224.354z"/>
	</g>
</g>
</svg>
