<?xml version="1.0" encoding="utf-8"?>
<!-- Generator: Adobe Illustrator 16.0.0, SVG Export Plug-In . SVG Version: 6.00 Build 0)  -->
<!DOCTYPE svg PUBLIC "-//W3C//DTD SVG 1.1//EN" "http://www.w3.org/Graphics/SVG/1.1/DTD/svg11.dtd">
<svg version="1.1" xmlns="http://www.w3.org/2000/svg" xmlns:xlink="http://www.w3.org/1999/xlink" x="0px" y="0px" width="512px"
	 height="512px" viewBox="0 0 512 512" enable-background="new 0 0 512 512" xml:space="preserve">
<g id="Capa_2">
</g>
<g id="Artwork">
</g>
<g id="Layer_3">
</g>
<g id="Layer_4">
</g>
<g id="Layer_5">
	<g>
		<path d="M257.6,449.109l36.854-94.413c0.625-1.601,0.102-3.865-1.16-5.031l-22.965-21.205c-1.264-1.165-2.293-3.524-2.293-5.243
			l-0.002-11.201c0-1.125,0.445-1.309,0.666-1.359c20.902-4.692,37.402-21.139,42.186-42.005c0.047-0.204,0.107-0.619,0.699-0.618
			h12.492c1.717,0,4.076,1.033,5.242,2.297l20.348,22.033c1.166,1.262,3.43,1.784,5.031,1.159l94.412-36.851
			c1.602-0.625,1.604-1.646,0-2.271l-94.414-36.852c-1.6-0.625-3.863-0.103-5.029,1.16l-20.348,22.035
			c-1.168,1.262-3.525,2.294-5.244,2.294l-12.789,0.001c-0.586,0-0.689-0.521-0.756-0.779c-5.139-19.952-21.049-35.623-41.145-40.4
			c-0.447-0.107-1.35-0.355-1.35-1.234l-0.002-12.698c0.002-1.719,1.033-4.077,2.297-5.244l22.035-20.348
			c1.262-1.166,1.783-3.429,1.158-5.03l-36.851-94.414c-0.624-1.602-1.646-1.602-2.271,0l-36.851,94.414
			c-0.624,1.601-0.103,3.864,1.159,5.029l22.036,20.349c1.262,1.166,2.295,3.525,2.295,5.243v12.894
			c0,1.271-0.677,1.337-1.013,1.427c-19.316,5.176-34.528,20.477-39.583,39.844c-0.082,0.314-0.165,0.949-0.85,0.949H187.93
			c-1.719-0.001-4.079-1.032-5.245-2.295l-20.35-22.035c-1.167-1.264-3.431-1.786-5.031-1.16l-94.415,36.85
			c-1.601,0.626-1.601,1.646,0,2.272l94.416,36.852c1.601,0.625,3.864,0.103,5.029-1.159l20.348-22.033
			c1.166-1.264,3.525-2.297,5.245-2.297h13.37c0.64,0,0.743,0.592,0.811,0.885c4.708,20.087,20.281,36.028,40.162,41.26
			c0.256,0.066,0.769,0.213,0.769,1.497v13.255c0,1.72-1.033,4.079-2.296,5.245l-21.106,19.49c-1.261,1.166-1.784,3.43-1.159,5.03
			l23.425,60.019c0.626,1.601,1.136,2.998,1.136,3.104c0.002,0.106,0.036,0.192,0.077,0.192c0.041-0.001,0.585,1.311,1.21,2.911
			l11.002,28.188C255.954,450.712,256.975,450.711,257.6,449.109z M226.904,256.18c0.001-16.301,13.262-29.563,29.561-29.563
			c16.301,0,29.561,13.262,29.561,29.562s-13.262,29.561-29.562,29.561C240.165,285.74,226.904,272.479,226.904,256.18z"/>
	</g>
</g>
</svg>
