<?xml version="1.0" encoding="utf-8"?>
<!-- Generator: Adobe Illustrator 16.0.0, SVG Export Plug-In . SVG Version: 6.00 Build 0)  -->
<!DOCTYPE svg PUBLIC "-//W3C//DTD SVG 1.1//EN" "http://www.w3.org/Graphics/SVG/1.1/DTD/svg11.dtd">
<svg version="1.1" xmlns="http://www.w3.org/2000/svg" xmlns:xlink="http://www.w3.org/1999/xlink" x="0px" y="0px" width="512px"
	 height="512px" viewBox="0 0 512 512" enable-background="new 0 0 512 512" xml:space="preserve">
<g id="Capa_2">
</g>
<g id="Artwork">
</g>
<g id="Layer_3">
</g>
<g id="Layer_4">
</g>
<g id="Layer_5">
	<g>
		<path d="M256.671,131.096c-79.729,0.101-161.59,150.03-139.439,196.221c11.81,24.63,43.109,40.399,80.739,48.069
			c36.73,7.48,79.5,7.24,116.061-0.02c40.09-7.971,72.71-24.38,81.72-48.32C413.891,278.876,337.451,130.996,256.671,131.096z
			 M368.701,315.666c-5.66,15.05-22.99,26.37-45.72,33.62c-1.605,0.509-3.238,0.999-4.895,1.472
			c-1.336,0.383-4.056,0.328-4.056-3.172v-72.81c0-7.41-6.061-13.471-13.48-13.471h-89.1c-7.42,0-13.48,6.061-13.48,13.471v72.749
			c0,3.311-2.771,3.519-4.133,3.114c-23.315-6.927-41.914-18.398-49.747-34.754c-8.85-18.46,3.08-57.93,25.18-92.79
			c22.11-34.859,54.4-65.12,86.25-65.16c0.351,0,0.69,0.021,1.03,0.03c0.33-0.01,0.66-0.03,0.99-0.03
			c16.14-0.02,32.07,7.42,46.65,19.2c14.579,11.771,27.81,27.891,38.579,45.2C364.301,256.966,375.951,296.426,368.701,315.666z"/>
	</g>
</g>
</svg>
