<?xml version="1.0" encoding="utf-8"?>
<!-- Generator: Adobe Illustrator 16.0.0, SVG Export Plug-In . SVG Version: 6.00 Build 0)  -->
<!DOCTYPE svg PUBLIC "-//W3C//DTD SVG 1.1//EN" "http://www.w3.org/Graphics/SVG/1.1/DTD/svg11.dtd">
<svg version="1.1" xmlns="http://www.w3.org/2000/svg" xmlns:xlink="http://www.w3.org/1999/xlink" x="0px" y="0px" width="512px"
	 height="512px" viewBox="0 0 512 512" enable-background="new 0 0 512 512" xml:space="preserve">
<g id="Capa_2">
</g>
<g id="Artwork">
</g>
<g id="Layer_3">
</g>
<g id="Layer_4">
</g>
<g id="Layer_5">
	<g>
		<path d="M351.517,402.825c0,3.058-2.501,5.559-5.557,5.559h-46.315c-3.058,0-5.559-2.501-5.559-5.559v-0.277
			c0-3.057,2.501-5.558,5.559-5.558h46.315c3.056,0,5.557,2.501,5.557,5.558V402.825z"/>
		<path d="M279.81,403.926c0.072-1.745,0.401-4.833,1.134-6.896c0.143-0.401,0.477-1.225-0.247-1.721
			c-19.421-14.377-30.132-33.812-30.132-58.253v-19.258c0-9.023,7.066-18.614,20.16-18.614c0,0,11.726,0,15.635,0
			c4.659,0,4.089-3.77,4.089-3.77l2.862-46.353c0.531-8.595-3.299-21.235-8.511-28.09l-23.563-30.99
			c-5.212-6.854-6.63-18.908-3.151-26.785l11.477-25.986c3.479-7.877,9.06-18.358,9.06-20.513c0-11.704-28.163-16.719-62.902-16.719
			c-34.74,0-62.903,5.015-62.903,16.719c0,2.154,5.58,12.636,9.06,20.513l11.477,25.986c3.479,7.877,2.061,19.931-3.151,26.785
			l-23.563,30.99c-5.212,6.854-9.042,19.495-8.511,28.09l9.253,147.331c0.531,8.596,8.011,15.627,16.621,15.627h103.436
			c4.896,0,9.977-2.702,11.688-4.909C279.804,406.07,279.778,404.697,279.81,403.926z"/>
		<path d="M275.246,318.696c-5.361,0-5.361,4.078-5.361,4.078v15.992c0,18.68,9.853,35.048,24.639,44.221
			c1.157,0.719,3.341,2.019,5.617,2.019h43.813c2.322,0,3.893-1.142,4.92-1.765c15.014-9.122,25.049-25.621,25.049-44.475v-16.562
			c0,0,0-3.509-3.463-3.509C346.656,318.696,299.915,318.696,275.246,318.696z"/>
	</g>
</g>
</svg>
