<?xml version="1.0" encoding="utf-8"?>
<!-- Generator: Adobe Illustrator 16.0.0, SVG Export Plug-In . SVG Version: 6.00 Build 0)  -->
<!DOCTYPE svg PUBLIC "-//W3C//DTD SVG 1.1//EN" "http://www.w3.org/Graphics/SVG/1.1/DTD/svg11.dtd">
<svg version="1.1" xmlns="http://www.w3.org/2000/svg" xmlns:xlink="http://www.w3.org/1999/xlink" x="0px" y="0px" width="512px"
	 height="512px" viewBox="0 0 512 512" enable-background="new 0 0 512 512" xml:space="preserve">
<g id="Capa_2">
</g>
<g id="Artwork">
</g>
<g id="Layer_3">
</g>
<g id="Layer_4">
</g>
<g id="Layer_5">
	<g>
		<g>
			<g>
				<path d="M340.766,103.102c-0.831-0.721-0.92-1.991-0.199-2.821l16.563-19.084c0.721-0.831,1.991-0.92,2.821-0.199l3.65,3.168
					c0.831,0.721,0.92,1.991,0.199,2.821l-16.563,19.084c-0.721,0.831-1.99,0.92-2.821,0.199L340.766,103.102z"/>
				<path d="M114.273,364.057c-0.831-0.721-0.921-1.991-0.2-2.821l35.749-41.188c0.721-0.831,1.991-0.92,2.822-0.199l3.65,3.168
					c0.831,0.721,0.92,1.991,0.2,2.821l-35.749,41.188c-0.721,0.831-1.99,0.921-2.821,0.2L114.273,364.057z"/>
			</g>
			<path d="M281.788,161.255c-6.231-5.408-6.904-14.93-1.496-21.161l9.504-10.951c5.407-6.23,14.93-6.904,21.16-1.496l13.351,11.588
				c6.23,5.408,6.904,14.93,1.496,21.161l-9.504,10.951c-5.408,6.23-14.93,6.904-21.16,1.496L281.788,161.255z"/>
			<path d="M227.27,224.068c-6.23-5.408-6.904-14.93-1.496-21.16l9.504-10.951c5.408-6.23,14.93-6.904,21.161-1.496l13.351,11.588
				c6.23,5.408,6.904,14.93,1.496,21.16l-9.504,10.951c-5.408,6.23-14.93,6.904-21.161,1.496L227.27,224.068z"/>
			<path d="M256.587,176.561c-2.492-2.163-2.762-5.972-0.599-8.464l3.593-4.14c2.163-2.492,5.972-2.762,8.464-0.599l26.945,23.387
				c2.493,2.163,2.762,5.972,0.599,8.464l-3.593,4.141c-2.163,2.492-5.972,2.761-8.464,0.598L256.587,176.561z"/>
			<path d="M202.069,239.374c-2.492-2.163-2.761-5.972-0.598-8.464l3.593-4.14c2.163-2.492,5.972-2.761,8.464-0.598l26.945,23.386
				c2.492,2.163,2.762,5.972,0.599,8.464l-3.594,4.14c-2.163,2.492-5.972,2.762-8.464,0.599L202.069,239.374z"/>
			<path d="M172.752,286.881c-6.23-5.408-6.904-14.93-1.496-21.16l9.504-10.951c5.408-6.23,14.93-6.904,21.16-1.496l13.351,11.588
				c6.23,5.408,6.904,14.93,1.496,21.161l-9.504,10.951c-5.408,6.23-14.93,6.903-21.16,1.496L172.752,286.881z"/>
			<path d="M147.551,302.187c-2.492-2.163-2.762-5.972-0.599-8.464l3.594-4.14c2.163-2.492,5.972-2.762,8.464-0.599l26.945,23.387
				c2.492,2.163,2.761,5.972,0.598,8.464l-3.593,4.14c-2.163,2.492-5.972,2.762-8.464,0.599L147.551,302.187z"/>
			<path d="M311.104,113.747c-2.492-2.163-2.761-5.972-0.598-8.464l3.593-4.14c2.163-2.493,5.972-2.762,8.464-0.599l26.945,23.387
				c2.492,2.163,2.761,5.972,0.598,8.464l-3.593,4.14c-2.163,2.492-5.972,2.762-8.464,0.599L311.104,113.747z"/>
		</g>
		<g>
			<g>
				<path d="M397.427,276.084c-0.477-0.991-0.057-2.192,0.934-2.67l22.767-10.963c0.991-0.477,2.192-0.057,2.67,0.934l2.097,4.355
					c0.478,0.991,0.057,2.192-0.934,2.669l-22.767,10.964c-0.991,0.477-2.193,0.057-2.67-0.935L397.427,276.084z"/>
				<path d="M86.106,426.004c-0.478-0.991-0.057-2.192,0.934-2.669l49.138-23.663c0.991-0.478,2.192-0.057,2.669,0.934l2.097,4.354
					c0.477,0.991,0.057,2.192-0.934,2.67l-49.138,23.663c-0.991,0.477-2.192,0.057-2.67-0.934L86.106,426.004z"/>
			</g>
			<path d="M320.24,306.126c-3.58-7.433-0.427-16.443,7.006-20.023l13.064-6.291c7.433-3.58,16.443-0.426,20.022,7.006l7.67,15.928
				c3.58,7.433,0.426,16.443-7.007,20.022l-13.064,6.292c-7.433,3.579-16.443,0.426-20.022-7.007L320.24,306.126z"/>
			<path d="M245.304,342.212c-3.58-7.433-0.426-16.443,7.007-20.023l13.064-6.291c7.433-3.58,16.443-0.427,20.022,7.006l7.67,15.928
				c3.58,7.433,0.427,16.443-7.006,20.022l-13.064,6.291c-7.433,3.58-16.443,0.427-20.022-7.006L245.304,342.212z"/>
			<path d="M291.039,310.199c-1.432-2.973-0.171-6.577,2.802-8.009l4.939-2.378c2.973-1.432,6.577-0.171,8.009,2.803l15.48,32.146
				c1.432,2.973,0.171,6.577-2.802,8.009l-4.939,2.379c-2.973,1.432-6.577,0.17-8.009-2.803L291.039,310.199z"/>
			<path d="M216.102,346.286c-1.432-2.974-0.171-6.578,2.803-8.009l4.939-2.378c2.973-1.432,6.578-0.171,8.009,2.802l15.48,32.146
				c1.432,2.974,0.17,6.578-2.803,8.009l-4.939,2.378c-2.973,1.432-6.577,0.171-8.009-2.802L216.102,346.286z"/>
			<path d="M170.367,378.298c-3.579-7.433-0.426-16.443,7.007-20.022l13.064-6.291c7.433-3.58,16.443-0.427,20.023,7.006
				l7.67,15.928c3.58,7.433,0.427,16.443-7.006,20.023l-13.064,6.291c-7.433,3.58-16.443,0.427-20.023-7.006L170.367,378.298z"/>
			<path d="M141.166,382.372c-1.432-2.973-0.17-6.577,2.803-8.009l4.939-2.378c2.974-1.432,6.578-0.171,8.009,2.802l15.48,32.146
				c1.432,2.973,0.17,6.578-2.803,8.009l-4.939,2.378c-2.974,1.432-6.578,0.17-8.009-2.803L141.166,382.372z"/>
			<path d="M365.975,274.113c-1.432-2.973-0.17-6.577,2.803-8.009l4.939-2.378c2.973-1.432,6.577-0.17,8.009,2.803l15.48,32.146
				c1.432,2.973,0.171,6.577-2.803,8.009l-4.939,2.379c-2.973,1.432-6.578,0.17-8.009-2.803L365.975,274.113z"/>
		</g>
	</g>
</g>
</svg>
