<?xml version="1.0" encoding="utf-8"?>
<!-- Generator: Adobe Illustrator 16.0.0, SVG Export Plug-In . SVG Version: 6.00 Build 0)  -->
<!DOCTYPE svg PUBLIC "-//W3C//DTD SVG 1.1//EN" "http://www.w3.org/Graphics/SVG/1.1/DTD/svg11.dtd">
<svg version="1.1" xmlns="http://www.w3.org/2000/svg" xmlns:xlink="http://www.w3.org/1999/xlink" x="0px" y="0px" width="512px"
	 height="512px" viewBox="0 0 512 512" enable-background="new 0 0 512 512" xml:space="preserve">
<g id="Capa_2">
</g>
<g id="Artwork">
</g>
<g id="Layer_3">
</g>
<g id="Layer_4">
</g>
<g id="Layer_5">
	<g>
		<path d="M407.074,304.586c-0.003,0-0.004,0-0.006,0c-2.591,0-5.322-0.167-8.182-0.469c-0.691-0.073-2.119-0.132-2.789,1.019
			c-9.574,17.917-25.66,28.55-44.775,28.55H160.68c-19.113,0-35.376-10.947-44.952-28.864c-0.523-0.859-1.586-0.816-2.116-0.758
			c-3.04,0.335-5.939,0.523-8.679,0.523c-1.778,0-3.468-0.084-5.076-0.243c-1.772-0.176-3.902,0.026-3.902,1.276
			c7.296,29.128,28.768,48.297,55.521,48.297h209.052c26.754,0,48.831-19.293,56.128-48.418c0.299-1.623-1.234-1.59-2.14-1.453
			C412.187,304.399,409.715,304.585,407.074,304.586z"/>
		<g>
			<path d="M144.653,184.342c-0.885-1.536-2.331-0.822-3.172-0.379c-37.017,19.445-60.435,48.149-60.435,80.172
				c0,40.992,38.373,24.607,94.527,11.078c0.81-0.195,2.174-1.136,1.543-3.013L144.653,184.342z"/>
			<path d="M270.071,160.327v102.75c0,1.375,0.952,1.518,1.429,1.547c21.702,1.337,42.266,5.261,60.967,9.646
				c0.854,0.2,2.531,0.473,3.263-0.952l38.894-84.684c0.791-1.475-0.404-2.672-1.059-3.032
				c-27.262-15.005-62.366-24.868-101.149-27.056C271.635,158.502,270.071,158.545,270.071,160.327z"/>
			<path d="M257.071,160.077c0-1.653-2.018-1.995-2.491-1.993c-35.705,0.172-68.853,6.832-96.416,18.124
				c-0.772,0.316-2.084,1.348-1.514,3.095l33.604,90.945c0.701,1.537,2.251,1.142,2.912,1.004
				c19.247-4.002,40.406-7.073,62.239-7.182c0.41-0.002,1.667,0.006,1.667-1.119V160.077z"/>
			<path d="M385.551,195.987c-10.649,19.907-37.227,81.003-37.227,81.003c-0.41,0.919,0.555,1.32,1.061,1.449
				c49.016,12.53,81.569,23.45,81.569-14.305c0-26.411-15.934-50.561-42.28-69.125C388.004,194.539,386.373,194.452,385.551,195.987
				z"/>
		</g>
	</g>
</g>
</svg>
