<?xml version="1.0" encoding="utf-8"?>
<!-- Generator: Adobe Illustrator 16.0.0, SVG Export Plug-In . SVG Version: 6.00 Build 0)  -->
<!DOCTYPE svg PUBLIC "-//W3C//DTD SVG 1.1//EN" "http://www.w3.org/Graphics/SVG/1.1/DTD/svg11.dtd">
<svg version="1.1" xmlns="http://www.w3.org/2000/svg" xmlns:xlink="http://www.w3.org/1999/xlink" x="0px" y="0px" width="512px"
	 height="512px" viewBox="0 0 512 512" enable-background="new 0 0 512 512" xml:space="preserve">
<g id="Capa_2">
</g>
<g id="Artwork">
</g>
<g id="Layer_3">
</g>
<g id="Layer_4">
</g>
<g id="Layer_5">
	<g>
		<path d="M379.065,200.036c0.112-0.932,0.171-1.869,0.171-2.813c0-29.444-55.175-53.314-123.235-53.314
			c-68.062,0-123.236,23.87-123.236,53.314v120.372h0.172c3.389,28.134,57.189,50.495,123.064,50.495
			c65.874,0,119.675-22.361,123.063-50.495h0.001v-0.006c0.112-0.932,0.171-1.87,0.171-2.813c0-0.944-0.059-1.881-0.171-2.813
			V200.036z M256,245.567c-59.454,0-107.649-19.654-107.649-43.897c0-24.245,48.195-43.898,107.649-43.898
			c59.453,0,107.649,19.653,107.649,43.898C363.649,225.914,315.453,245.567,256,245.567z"/>
		<g>
			<path d="M223.192,199.59c0,14.794,11.211,26.788,0,26.788c-11.211,0-26.549-11.993-26.549-26.788s15.338-26.788,26.549-26.788
				C234.404,172.803,223.192,184.796,223.192,199.59z"/>
			<path d="M255.679,199.59c0,12.63,9.571,22.87,0,22.87c-9.572,0-22.667-10.239-22.667-22.87s13.095-22.87,22.667-22.87
				C265.25,176.721,255.679,186.96,255.679,199.59z"/>
			<path d="M283.43,199.59c0,9.983,7.565,18.076,0,18.076c-7.565,0-17.915-8.093-17.915-18.076s10.35-18.076,17.915-18.076
				C290.996,181.515,283.43,189.607,283.43,199.59z"/>
			<path d="M312.348,199.59c0,8.935,6.771,16.179,0,16.179s-16.035-7.244-16.035-16.179s9.264-16.179,16.035-16.179
				S312.348,190.655,312.348,199.59z"/>
		</g>
	</g>
</g>
</svg>
