<?xml version="1.0" encoding="utf-8"?>
<!-- Generator: Adobe Illustrator 16.0.0, SVG Export Plug-In . SVG Version: 6.00 Build 0)  -->
<!DOCTYPE svg PUBLIC "-//W3C//DTD SVG 1.1//EN" "http://www.w3.org/Graphics/SVG/1.1/DTD/svg11.dtd">
<svg version="1.1" xmlns="http://www.w3.org/2000/svg" xmlns:xlink="http://www.w3.org/1999/xlink" x="0px" y="0px" width="512px"
	 height="512px" viewBox="0 0 512 512" enable-background="new 0 0 512 512" xml:space="preserve">
<g id="Capa_2">
</g>
<g id="Artwork">
</g>
<g id="Layer_3">
</g>
<g id="Layer_4">
</g>
<g id="Layer_5">
	<g>
		<g>
			<path d="M353.776,338.089c-1.487,0-3.836-0.002-10.884-1.485c-0.749-0.157-2.062-0.765-4.772,0.14
				c-7.918,2.464-14.013,2.089-22.27-0.284l-159.954-45.97c-9.333-2.683-17.068-8.389-22.691-15.947
				c-0.246-0.332-0.416-0.911-1.903-1.368c-5.08-1.548-8.6-2.897-12.761-4.761c-3.271-1.465-6.194-3.095-8.935-4.688
				c-1.276-0.741-0.755,1.058-0.755,1.058c3.292,18.076,16.19,34.256,34.7,39.576l175.399,50.408
				c19.23,5.527,39.454-2.081,52.891-17.832c0.193-0.227,0.511-0.742,0.268-1.268c-0.504-0.955-0.711-1.342-1.22-2.292
				c-0.146-0.272-0.558-0.829-1.652-0.22C362.231,336.618,357.24,338.089,353.776,338.089z"/>
		</g>
		<g>
			<path d="M217.507,239.213c3.57-4.941,18.797-20.66,33.422-35.066c0.786-0.774,0.652-2.725-1.401-3.674
				c-33.944-12.381-57.791-19.788-63.84-19.058c-9.86,1.186-35.319,28.802-40.061,43.454c-1.104,3.415-4.77,5.288-8.185,4.184
				c-3.416-1.105-5.289-4.77-4.183-8.186c5.444-16.826,33.717-50.296,50.875-52.359c8.232-0.987,34.167,6.545,77.157,22.4
				c0.788,0.29,2.102,1.076,3.484-0.167c3.024-2.878,3.561-3.39,5.979-5.596c1.139-0.974-0.761-1.754-1.718-2.101
				c-46.704-16.907-91.231-29.814-106.155-27.29c-16.172,2.734-46.114,40.517-51.257,59.455c-1.588,5.852-0.86,21.61-0.213,27.993
				c0.263,2.594,2.746,3.549,2.746,3.549c6.657,2.255,44.024,14.949,92.392,30.64c3.281,1.155,4.216-1.008,4.048-2.441
				C209.415,264.908,209.984,249.627,217.507,239.213z"/>
			<path d="M322.066,203.566c-0.878-0.304-1.544-0.051-2.147,0.506c-1.904,1.759-3.184,2.879-5.346,5.343
				c-0.736,0.84-0.542,1.587,0.209,2.114c28.155,11.261,53.561,22.068,71.055,30.256c3.251,1.521,4.653,5.391,3.132,8.643
				c-1.104,2.36-3.447,3.746-5.892,3.746c-0.923,0-1.86-0.197-2.751-0.614c-20.402-9.549-48.437-21.351-76.921-32.627
				c-17.787,18.249-39.962,41.317-41.707,44.668c-4.047,7.771-3.81,17.939-2.836,25.317c0.16,1.21,0.845,3.504,2.85,4.111
				c44.949,14.105,82.725,25.077,92.065,25.077c6.185,0,35.448-17.051,44.35-32.013c1.788-3.005,6.683-29.673,4.635-42.13
				C401.706,239.547,367.142,222.103,322.066,203.566z"/>
		</g>
	</g>
</g>
</svg>
