<?xml version="1.0" encoding="utf-8"?>
<!-- Generator: Adobe Illustrator 16.0.0, SVG Export Plug-In . SVG Version: 6.00 Build 0)  -->
<!DOCTYPE svg PUBLIC "-//W3C//DTD SVG 1.1//EN" "http://www.w3.org/Graphics/SVG/1.1/DTD/svg11.dtd">
<svg version="1.1" xmlns="http://www.w3.org/2000/svg" xmlns:xlink="http://www.w3.org/1999/xlink" x="0px" y="0px" width="512px"
	 height="512px" viewBox="0 0 512 512" enable-background="new 0 0 512 512" xml:space="preserve">
<g id="Capa_2">
</g>
<g id="Artwork">
</g>
<g id="Layer_3">
</g>
<g id="Layer_4">
</g>
<g id="Layer_5">
	<g>
		<path d="M370.374,292.45c-0.825-0.402-3.419-0.396-5.403-0.237c-0.688,0.055-1.543,0.42-1.793,1.017
			c-6.673,15.875-23.604,26.081-41.196,26.081H146.529c-10.687,0-20.605-4.408-27.151-9.693c-1.454-1.31-2.922-1.26-3.618-1.281
			c-4.813-0.147-9.351-0.523-13.508-1.146c-2.482-0.372-4.845-0.831-7.095-1.371c-1.6-0.384-3.899,0.239-2.972,2.032
			c8.907,16.873,25.436,30.078,45.874,30.078h192.395c21.103,0,39.386-14.358,48.409-35.337c0.125-0.293,0.427-0.881-0.194-1.509
			C375.288,297.372,371.522,293.01,370.374,292.45z"/>
		<g>
			<path d="M197.833,228.294c2.388-5.295,11.524-25.392,20.361-44.211c0.496-1.056,0.73-2.942-2.608-3.997
				c-9.77-2.077-15.64-2.938-25.632-4.127c0,0.001,0,0.002,0,0.002c-9.769-1.165-19.566-1.838-29.24-1.886
				c-1.298-0.007-2.591-0.006-3.88,0.011c-10.851,0.13-21.514,1.065-31.792,2.989l-0.09,0.018c-0.333,0.063-0.667,0.127-0.996,0.193
				c-31.07,6.158-30.531,16.487-33.42,24.948c-3.07,8.989,3.83,16.244,1.069,25.455c-1.976,6.593-44.349,58.092,12.406,66.597
				c8.699,1.305,19.549,1.519,32.993,0.287c12.833-1.17,28.024-3.654,45.959-7.755c1.952-0.447,7.664-1.804,8.748-2.048
				c2.527-0.567,1.862-1.935,1.796-2.721C192.267,267.387,192.196,240.794,197.833,228.294z"/>
			<path d="M437.424,249.558c-0.331-1.7-8.351-2.771-15.667-1.334c-12.79,2.444-30.98,13.463-34.844,12.477
				c-0.506-0.129-3.913,0.112-12.989-6.143c-5.472-3.771-11.639-8.056-19.52-13.95l0-0.001v-0.002
				c-5.67-4.246-11.894-8.708-18.424-13.084h0c-11.575-7.755-24.105-15.228-36.232-20.702l0-0.002
				c-0.93-0.422-1.86-0.833-2.79-1.229c-8.925-3.818-18.866-7.687-29.517-11.343c0,0.001,0,0.002-0.001,0.003h-0.001
				c-0.512-0.176-1.026-0.35-1.542-0.523c-0.95-0.321-2.847-0.834-4.15,1.64c-9.855,19.913-26.491,53.751-27.846,58.123
				c-1.452,4.685-2.117,12.602-2.351,21.219c-0.018,0.667,0,2.185,2.243,1.639c8.269-1.37,13.892-2.115,21.434-3.001
				c14.168-1.665,27.065-2.54,38.725-2.833c13.953-0.354,26.132,0.119,36.59,1.048c12.4,1.104,22.389,2.844,30.052,4.604
				c6.968,1.599,12.938,1.821,15.194,4.366c0.012,0.014,31.908,42.601,41.145,47.948c1.205,0.697,2.347,0.452,2.493,0.413
				c4.831-1.29-18.75-55.459-17.478-57.309C403.09,269.919,438.453,254.84,437.424,249.558z"/>
		</g>
	</g>
</g>
</svg>
