<?xml version="1.0" encoding="utf-8"?>
<!-- Generator: Adobe Illustrator 16.0.0, SVG Export Plug-In . SVG Version: 6.00 Build 0)  -->
<!DOCTYPE svg PUBLIC "-//W3C//DTD SVG 1.1//EN" "http://www.w3.org/Graphics/SVG/1.1/DTD/svg11.dtd">
<svg version="1.1" xmlns="http://www.w3.org/2000/svg" xmlns:xlink="http://www.w3.org/1999/xlink" x="0px" y="0px" width="512px"
	 height="512px" viewBox="0 0 512 512" enable-background="new 0 0 512 512" xml:space="preserve">
<g id="Capa_2">
</g>
<g id="Artwork">
</g>
<g id="Layer_3">
</g>
<g id="Layer_4">
</g>
<g id="Layer_5">
	<g>
		<path d="M387.781,211.451c2.18-39.461-85.909-72.11-131.781-72.11c-45.869,0-133.961,32.649-131.78,72.11h-0.045v85.596h0.043
			c0.031,0.593,0.078,1.184,0.15,1.77C129.28,339.049,209.462,372.66,256,372.66c46.541,0,126.72-33.611,131.633-73.844
			c0.071-0.586,0.118-1.176,0.15-1.77h0.042v-85.596H387.781z M365.081,212.834c-4.172,33.092-70.202,60.99-108.46,61.145
			c-38.261,0.155-104.067-27.208-107.971-60.266c-3.904-33.061,70.202-60.99,108.463-61.147
			C295.371,152.411,369.253,179.745,365.081,212.834z"/>
		<path d="M307.746,205.41c0-11.504-11.262-20.83-25.158-20.83c-10.567,0-19.611,5.396-23.336,13.041
			c-0.119,0.244-0.536,0.283-0.784-0.209c-3.795-7.531-12.764-12.832-23.234-12.832c-13.894,0-25.158,9.326-25.158,20.83
			c0,4.836,1.999,9.285,5.34,12.822h-0.01l0.043,0.037c1.123,1.18,2.388,2.262,3.786,3.216l40.119,19.965
			c0,0,0.654,0.247,1.112,0.247c0.563,0,1.167-0.398,1.167-0.398l37.541-20.227h-0.008
			C304.422,217.252,307.746,211.653,307.746,205.41z"/>
	</g>
</g>
</svg>
