<?xml version="1.0" encoding="utf-8"?>
<!-- Generator: Adobe Illustrator 16.0.0, SVG Export Plug-In . SVG Version: 6.00 Build 0)  -->
<!DOCTYPE svg PUBLIC "-//W3C//DTD SVG 1.1//EN" "http://www.w3.org/Graphics/SVG/1.1/DTD/svg11.dtd">
<svg version="1.1" xmlns="http://www.w3.org/2000/svg" xmlns:xlink="http://www.w3.org/1999/xlink" x="0px" y="0px" width="512px"
	 height="512px" viewBox="0 0 512 512" enable-background="new 0 0 512 512" xml:space="preserve">
<g id="Capa_2">
</g>
<g id="Artwork">
</g>
<g id="Layer_3">
</g>
<g id="Layer_4">
</g>
<g id="Layer_5">
	<g>
		<g>
			<path d="M151.018,239.654c0.789-0.876,1.435-1.658,1.433-1.738c0,0,0,0,0-0.073c0-1.854,0.057-3.687,0.167-5.498
				c2.302-37.91,27.89-66.33,43.429-80.23c24.393-21.818,55.028-35.916,78.049-35.916c41.105,0,121.645,55.074,121.645,121.645
				c0,2.582-0.146,5.546-0.146,5.546c-0.058,1.178,0.45,2.931,1.129,3.896l10.234,15.807c0.602,1.015,1.237,0.892,1.414-0.274
				c0,0,2.381-15.7,2.381-24.974c0-45.992-31.598-80.498-50.432-96.974c-27.559-24.106-61.404-39.684-86.226-39.684
				c-26.912,0-60.653,15.228-88.057,39.739c-31.341,28.033-48.601,62.453-48.601,96.918c0,5.688,0.836,14.665,0.836,14.665
				c0.108,1.175,0.795,1.377,1.524,0.45L151.018,239.654z"/>
		</g>
		<g>
			<path d="M381.051,250.396c-27.432,16.826-62.715,24.726-107.822,24.726c-48.57,0-85.714-9.776-110.898-29.243
				c-1.133-0.72-2.301-0.263-3.029,0.527c-8.307,9.009-14.938,17.603-20.622,27.4c-0.402,0.695-1.241,2.202-2.523,1.137
				c0,0-13.618-9.707-18.968-13.229c-2.636-1.735-4.946,0.674-4.946,0.674l-11.587,13.252c0,0-2.437,2.701-1.264,5.601
				c8.037,19.869,23.576,57.517,35.346,78.108c23.407,33.106,80.903,51.466,148.127,51.466c62.214,0,130.065-33.261,130.065-88.088
				c0-22.907-9.027-48.57-25.953-70.688C386.068,250.853,383.754,248.315,381.051,250.396z"/>
			<path d="M332.853,219.267c-0.175-0.175-0.66-0.052-0.66-1.193c0-6.791-5.489-11.675-12.282-11.675h-18.985
				c-0.833,0-0.875-0.508-0.854-0.764c0.029-0.368,0.045-0.739,0.045-1.112c0-10.502-11.65-19.014-26.021-19.014
				c-14.371,0-26.021,8.512-26.021,19.014c0,0.328,0.012,0.654,0.035,0.979c0.021,0.301,0.232,0.897-0.685,0.897h-21.173
				c-6.793,0-12.278,4.817-12.278,11.608c0,1.188-1.194,1.272-1.194,1.313c-23.71,4.478-38.932,10.822-42.152,17.549
				c-0.262,0.546-0.41,1.514,0.765,2.41c24.851,15.215,58.538,22.436,100.777,22.436c38.988,0,73.747-7.056,100.604-20.655
				c0.899-0.489,0.899-1.316,0.899-1.78C373.673,231.714,358.006,224.192,332.853,219.267z"/>
		</g>
	</g>
</g>
</svg>
