<?xml version="1.0" encoding="utf-8"?>
<!-- Generator: Adobe Illustrator 16.0.0, SVG Export Plug-In . SVG Version: 6.00 Build 0)  -->
<!DOCTYPE svg PUBLIC "-//W3C//DTD SVG 1.1//EN" "http://www.w3.org/Graphics/SVG/1.1/DTD/svg11.dtd">
<svg version="1.1" xmlns="http://www.w3.org/2000/svg" xmlns:xlink="http://www.w3.org/1999/xlink" x="0px" y="0px" width="512px"
	 height="512px" viewBox="0 0 512 512" enable-background="new 0 0 512 512" xml:space="preserve">
<g id="Capa_2">
</g>
<g id="Artwork">
</g>
<g id="Layer_3">
</g>
<g id="Layer_4">
</g>
<g id="Layer_5">
	<g>
		<path d="M344.44,158.502h-33.628c0,0-1.875,0-1.875,2.493c0,8.426,0,33.701,0,33.701c0,1.65-1.351,3-3,3h-3.951
			c-1.65,0-3-1.35-3-3c0,0,0-25.275,0-33.701c0-2.493-1.735-2.493-1.735-2.493H167.56c-18.018,0-29.977,14.478-26.575,32.171
			l17.945,93.362c3.401,17.693,20.926,32.171,38.943,32.171h116.254c18.018,0,35.542-14.478,38.943-32.171l17.946-93.362
			C374.417,172.979,362.458,158.502,344.44,158.502z M328.181,262.451c0,1.801-1.475,3.275-3.276,3.275h-41.886
			c-1.802,0-3.275-1.475-3.275-3.275v-36.863c0-1.803,0.841-4.487,1.869-5.967l7.232-10.406c1.028-1.479,3.344-2.69,5.146-2.69
			h19.943c1.802,0,4.104,1.22,5.115,2.711l7.293,10.752c1.011,1.491,1.839,4.185,1.839,5.987V262.451z"/>
		<path d="M344.203,347.012c-6.824,3.567-18.707,6.486-26.407,6.486H189.878c-7.7,0-19.464-3.136-26.143-6.968l-21.034-12.068
			c-6.679-3.832-5.843-6.967,1.857-6.967h222.974c7.7,0,8.417,2.919,1.594,6.486L344.203,347.012z"/>
	</g>
</g>
</svg>
