<?xml version="1.0" encoding="utf-8"?>
<!-- Generator: Adobe Illustrator 16.0.0, SVG Export Plug-In . SVG Version: 6.00 Build 0)  -->
<!DOCTYPE svg PUBLIC "-//W3C//DTD SVG 1.1//EN" "http://www.w3.org/Graphics/SVG/1.1/DTD/svg11.dtd">
<svg version="1.1" xmlns="http://www.w3.org/2000/svg" xmlns:xlink="http://www.w3.org/1999/xlink" x="0px" y="0px" width="512px"
	 height="512px" viewBox="0 0 512 512" enable-background="new 0 0 512 512" xml:space="preserve">
<g id="Capa_2">
</g>
<g id="Artwork">
</g>
<g id="Layer_3">
</g>
<g id="Layer_4">
</g>
<g id="Layer_5">
	<g>
		<g>
			<path d="M176.475,419.295c-1.138,2.502-4.117,3.621-6.62,2.482l-5.67-2.574c-2.504-1.139-3.621-4.117-2.483-6.621l16.111-35.465
				c1.138-2.504,4.117-3.621,6.621-2.484l5.669,2.576c2.504,1.137,3.622,4.117,2.484,6.619L176.475,419.295z"/>
		</g>
		<path d="M417.451,300.32l-99.993-158.725c-0.483-0.768-6.055-3.273-7.674-4.01c-4.897-2.225-14.692-6.676-19.59-8.9
			c-1.437-0.652-7.233-3.408-8.428-3.088L96.795,154.645c-3.691,0.58-4.23,2.842-1.197,5.025c0,0,26.908,19.564,85.696,49.926
			c0,0,0.978,0.453,1.66,1.82c8.658,17.359,34.953,68.785,34.953,68.785c1.744,3.432,2.792,5.539,2.804,5.541
			c0,0,0.373,0.729-0.24,2.158c-7.852,18.305-32.7,71.975-32.7,71.975c-0.91,2.002-0.016,4.387,1.987,5.295l3.366,1.529
			c2.003,0.91,4.387,0.016,5.296-1.986l33.019-71.832c0.463-1.047,2.459-1.723,4.467-2.094c0.748-0.139,81.057-18.662,81.057-18.662
			c0.852-0.186,1.397,0.041,1.689,0.156c64.892,25.953,95.769,32.402,95.769,32.402C418.078,305.445,419.442,303.482,417.451,300.32
			z M218.903,259.662l-20.763-40.863c0,0-0.374-0.813,0.549-0.361c7.968,3.896,15.425,7.617,24.262,11.836
			c0.276,0.131,0.771,0.656,0.771,1.662l-1.309,26.975C222.227,262.756,220.647,263.094,218.903,259.662z M232.04,270.83
			c0,0,1.073-25.682,1.66-34.229c0.092-1.338,0.887-0.838,0.887-0.838c5.295,2.475,9.912,4.602,15.525,7.15
			c5.66,2.572,10.087,4.561,15.444,6.932c0,0,1.152,0.418,0.356,1.041c-7.198,5.625-28.713,22.605-28.713,22.605
			C234.176,275.873,231.854,274.676,232.04,270.83z M254.584,276.516c-3.745,0.893-4.334-0.326-1.309-2.707
			c0,0,17.502-13.783,23.339-18.375c0.668-0.525,1.213-0.203,1.213-0.203c8.527,3.707,14.546,6.16,22.214,9.453
			c1.544,0.664,0.297,0.926,0.297,0.926L254.584,276.516z"/>
		<path d="M317.536,124.332c1.134,0.516,1.897-0.068,1.697-1.299l-1.299-7.967c-0.2-1.23,0.585-2.607,1.746-3.059
			c0,0,5.287-2.061,7.016-5.867c2.644-5.818,0.069-12.68-5.75-15.324c-5.82-2.645-12.682-0.07-15.326,5.75
			c-1.729,3.805,0.197,9.143,0.197,9.143c0.423,1.172-0.097,2.67-1.154,3.326l-6.855,4.264c-1.059,0.658-0.996,1.619,0.139,2.135
			L317.536,124.332z"/>
	</g>
</g>
</svg>
