<?xml version="1.0" encoding="utf-8"?>
<!-- Generator: Adobe Illustrator 16.0.0, SVG Export Plug-In . SVG Version: 6.00 Build 0)  -->
<!DOCTYPE svg PUBLIC "-//W3C//DTD SVG 1.1//EN" "http://www.w3.org/Graphics/SVG/1.1/DTD/svg11.dtd">
<svg version="1.1" xmlns="http://www.w3.org/2000/svg" xmlns:xlink="http://www.w3.org/1999/xlink" x="0px" y="0px" width="512px"
	 height="512px" viewBox="0 0 512 512" enable-background="new 0 0 512 512" xml:space="preserve">
<g id="Capa_2">
</g>
<g id="Artwork">
</g>
<g id="Layer_3">
</g>
<g id="Layer_4">
</g>
<g id="Layer_5">
	<g>
		<path d="M321.618,279.848c25.837-7.248,38.64-21.06,37.863-39.056c-0.979-22.715-17.516-49.008-55.347-55.52
			c-0.461-0.079-0.394-0.505,0.092-0.646c11.654-3.363,17.483-7.54,17.886-16.862c0.84-19.461-46.867-41.504-86.508-43.214
			c-39.642-1.71-56.371,21.423-57.21,40.886c-0.547,12.683,11.543,27.118,30.654,32.954c1.391,0.425,1.144,1.101,0.567,1.336
			c-29.126,11.896-50.894,28.697-50.221,44.309c0.548,12.691,9.896,22.592,26.942,29.531c0.506,0.206,0.658,0.901,0.223,1.05
			c-33.424,11.417-51.061,36.061-51.061,57.957c0,31.657,37.021,54.965,101.5,54.965c87.123,0,139.5-28.619,139.5-60.276
			c0-20.029-18.602-35.473-54.942-45.826C320.606,281.165,320.652,280.119,321.618,279.848z M339.238,217.589
			c-3.868,5.153-18.986-6.336-53.464-8.289c-32.144-1.821-64.264,5.607-65.819,5.74c-4.482,0.38-3.602-1.498-1.63-2.586
			C292.613,171.474,342.167,213.687,339.238,217.589z M192.795,150.281c-2.341-3.121,37.932-37.348,97.939-2.501
			c0.655,0.381,1.404,1.183-1.408,0.843c-1.222-0.147-28.824-7.369-54.431-4.869C208.175,146.362,195.841,154.339,192.795,150.281z
			 M318.302,310.15c-2.07-0.4-39.763-10.752-83.124-7.773c-38.26,2.628-72.422,19.28-78.496,11.5
			c-6.646-8.512,51.572-53.564,155.356-9.576C317.233,306.501,325.306,311.503,318.302,310.15z"/>
	</g>
</g>
</svg>
