<?xml version="1.0" encoding="utf-8"?>
<!-- Generator: Adobe Illustrator 16.0.0, SVG Export Plug-In . SVG Version: 6.00 Build 0)  -->
<!DOCTYPE svg PUBLIC "-//W3C//DTD SVG 1.1//EN" "http://www.w3.org/Graphics/SVG/1.1/DTD/svg11.dtd">
<svg version="1.1" xmlns="http://www.w3.org/2000/svg" xmlns:xlink="http://www.w3.org/1999/xlink" x="0px" y="0px" width="512px"
	 height="512px" viewBox="0 0 512 512" enable-background="new 0 0 512 512" xml:space="preserve">
<g id="Capa_2">
</g>
<g id="Artwork">
</g>
<g id="Layer_3">
</g>
<g id="Layer_4">
</g>
<g id="Layer_5">
	<g>
		<path d="M428.825,132.242c-3.996-2.768-10.645-0.22-14.85,5.691L310.607,283.258c0,0-0.54,0.918-1.54,0.918
			c-1.773,0-5.099,0-7.094,0c-1.781,0-1.239-1.498-1.239-1.498L364.577,97.59c2.357-6.836,0.521-13.637-4.102-15.188
			c-4.623-1.553-10.281,2.73-12.64,9.567l-65.78,190.709c0,0-0.645,1.498-2.395,1.498c-47.292,0-189.167,0-189.167,0
			c-8.25,0-12.344,6.206-9.097,13.79l50.578,118.161c3.246,7.584,12.652,13.79,20.902,13.79h174.183
			c8.25,0,17.656-6.206,20.903-13.79l50.578-118.161c3.246-7.584-0.848-13.79-9.098-13.79c0,0-42.728,0-56.97,0
			c-0.958,0-0.309-0.855-0.309-0.855l96.284-135.363C432.655,142.046,432.823,135.011,428.825,132.242z"/>
		<g>
			<path d="M298.963,199.815l3.429-9.94c0.518-1.369-0.573-2.056-1.088-2.439c-9.378-6.991-20.945-11.116-33.272-11.116
				c-20.871,0-39.674,11.455-49.308,29.608c-4.641-1.215-9.423-1.829-14.276-1.829c-20.791,0-39.815,11.59-49.551,29.526
				c-7.438-4.85-16.134-7.458-25.157-7.458c-24.916,0-45.285,19.839-46.14,44.55c-0.019,0.537-0.001,1.618,1.018,1.618h10
				c1.084,0,0.962-0.856,0.978-1.281c0.676-18.249,15.733-32.887,34.145-32.887c8.706,0,16.993,3.295,23.361,9.248
				c1.172,1.096,3.184,2.966,6.184,1.716c2.09-0.87,3.037-2.781,3.552-4.02c7.093-17.078,23.111-29.013,41.611-29.013
				c5.29,0,10.521,0.785,15.391,2.747c1.091,0.439,2.946,1.285,4.696,0.285c1.923-1.099,2.497-2.548,2.936-3.629
				c6.714-16.545,22.715-27.183,40.562-27.183c10.694,0,20.661,3.952,28.383,10.527
				C297.167,199.488,298.659,200.693,298.963,199.815z"/>
			<path d="M335.421,215.967l-3.525,10.222c-0.299,0.814,0.432,0.854,0.813,0.813c1.379-0.148,2.79-0.011,4.17-0.257
				c0.363-0.065,0.518-0.211,0.767-0.481l7.548-10.611c0.217-0.271-0.293-0.441-0.57-0.476c-2.313-0.286-4.665-0.442-7.055-0.442
				c-0.199,0-0.399,0.001-0.599,0.004C336.591,214.743,335.909,214.734,335.421,215.967z"/>
			<path d="M379.917,235.173l-5.983,8.411c-0.524,0.589,0.082,1.372,0.349,1.734c5.236,7.097,8.467,15.759,8.848,25.143
				c0.025,0.621,0.321,1.874,1.321,1.874h9.583c1.5,0,1.125-1.141,1.109-1.707c-0.395-13.479-5.453-25.801-13.6-35.432
				C381.247,234.846,380.492,234.256,379.917,235.173z"/>
		</g>
	</g>
</g>
</svg>
