<?xml version="1.0" encoding="utf-8"?>
<!-- Generator: Adobe Illustrator 16.0.0, SVG Export Plug-In . SVG Version: 6.00 Build 0)  -->
<!DOCTYPE svg PUBLIC "-//W3C//DTD SVG 1.1//EN" "http://www.w3.org/Graphics/SVG/1.1/DTD/svg11.dtd">
<svg version="1.1" xmlns="http://www.w3.org/2000/svg" xmlns:xlink="http://www.w3.org/1999/xlink" x="0px" y="0px" width="512px"
	 height="512px" viewBox="0 0 512 512" enable-background="new 0 0 512 512" xml:space="preserve">
<g id="Capa_2">
</g>
<g id="Artwork">
</g>
<g id="Layer_3">
</g>
<g id="Layer_4">
</g>
<g id="Layer_5">
	<g>
		<path d="M256.027,261.784C147.25,265.876,90.001,306.045,44.751,367.68c-0.509,0.693-1.231,2.813,1.231,2.813
			c11.189,0,43.594,0,43.594,0c19.807,0,43.764-80.233,166.45-80.233c124.331,0,146.644,80.233,168.575,80.233h40.922
			c3.5,0,2.058-2.438,1.163-3.645C421.607,306.083,363.885,265.842,256.027,261.784z"/>
		<path d="M449.089,253.955c-0.688,0-1.25-0.9-1.25-2v-4.5c0-1.1-0.009-2-0.019-2c-0.011,0,0.626-0.627,1.417-1.393
			c0,0,4.853-4.705,4.853-9.305c0-6.766-5.484-12.25-12.25-12.25c-6.765,0-12.25,5.484-12.25,12.25c0,4.6,4.853,9.305,4.853,9.305
			c0.79,0.766,1.427,1.393,1.417,1.393s-0.02,0.9-0.02,2v4.5c0,1.1-0.563,2-1.25,2s-1.25,0.9-1.25,2v14.803
			c0,1.75-0.962,1.376-1.444,0.875c-16.768-17.432-34.444-30.897-54.227-41.42c-0.486-0.258-1.461-0.518-1.461-1.643v-26.498
			c0-1.1-0.563-2-1.25-2s-1.25-0.9-1.25-2v-4.141c0-1.1,0.645-2.628,1.433-3.396c0,0,4.817-4.694,4.817-9.278
			c0-6.766-5.484-12.25-12.25-12.25s-12.25,5.484-12.25,12.25c0,4.584,4.817,9.278,4.817,9.278c0.788,0.768,1.433,2.296,1.433,3.396
			v4.141c0,1.1-0.563,2-1.25,2s-1.25,0.9-1.25,2v17.436c0,1.5-1.401,1.427-2.106,1.144c-27.015-10.878-58.037-17.214-94.114-19.216
			c-0.304-0.017-0.913-0.115-0.913-0.928v-24.834c0-1.1-0.563-2-1.25-2s-1.25-0.9-1.25-2v-5.242c0-1.101,0.645-2.629,1.433-3.396
			c0,0,4.817-4.693,4.817-9.277c0-6.766-5.485-12.25-12.25-12.25c-6.766,0-12.25,5.484-12.25,12.25c0,4.584,4.817,9.278,4.817,9.278
			c0.788,0.768,1.433,2.296,1.433,3.396v5.242c0,1.1-0.563,2-1.25,2s-1.25,0.9-1.25,2v24.334c0,1.167-0.99,1.415-1.483,1.443
			c-36.161,2.024-67.24,8.409-94.294,19.362c-0.453,0.184-1.355,0.277-1.355-0.806v-17.936c0-1.1-0.563-2-1.25-2s-1.25-0.9-1.25-2
			v-4.141c0-1.1,0.645-2.628,1.432-3.396c0,0,4.818-4.694,4.818-9.278c0-6.766-5.484-12.25-12.25-12.25s-12.25,5.484-12.25,12.25
			c0,4.584,4.817,9.278,4.817,9.278c0.788,0.768,1.433,2.296,1.433,3.396v4.141c0,1.1-0.563,2-1.25,2s-1.25,0.9-1.25,2v26.186
			c0,1.25-0.641,1.334-0.96,1.502c-20.131,10.589-38.077,24.188-55.088,41.873c-0.362,0.376-1.084,0.708-1.084-0.625v-15.053
			c0-1.1-0.563-2-1.25-2s-1.25-0.9-1.25-2v-4.5c0-1.1-0.009-2-0.019-2c-0.011,0,0.626-0.627,1.417-1.393
			c0,0,4.853-4.705,4.853-9.305c0-6.766-5.484-12.25-12.25-12.25c-6.765,0-12.25,5.484-12.25,12.25c0,4.6,4.853,9.305,4.853,9.305
			c0.79,0.766,1.427,1.393,1.417,1.393s-0.02,0.9-0.02,2v4.5c0,1.1-0.563,2-1.25,2s-1.25,0.9-1.25,2v36.416
			c-0.005,0.008-0.011,0.014-0.016,0.021l0.016,0.013v41.187c0,1.667,1.264,0.896,1.897,0.189
			c4.66-5.196,9.385-10.101,14.196-14.726c0.302-0.29,0.906-0.898,0.906-1.768v-21.196c0-0.875,0.458-1.337,0.687-1.607
			c17.025-20.078,35.194-35.832,55.667-47.796c0.259-0.152,0.778-0.43,0.778,0.508v27.813c0,1.875,1.325,0.95,1.991,0.642
			c4.513-2.094,9.126-4.063,13.848-5.901c0.386-0.15,1.161-0.428,1.161-1.615v-29.708c0-0.813,0.845-1.288,1.269-1.476
			c26.82-11.903,57.6-18.413,94.483-20.492c0.459-0.025,1.38,0.134,1.38,1.218v31.646c0,1,1.063,0.809,1.595,0.78
			c2.186-0.118,4.382-0.227,6.604-0.311l0.301-0.012l0.301,0.012c2.246,0.085,4.464,0.195,6.672,0.313
			c0.51,0.027,1.527,0.092,1.527-0.846v-31.875c0-0.875,0.694-0.941,1.04-0.922c36.707,2.07,67.373,8.525,94.103,20.322
			c0.666,0.294,1.989,1.308,1.989,2.392v28.333c0,1.333,0.874,1.418,1.31,1.584c4.942,1.877,9.777,3.881,14.494,6.035
			c0.399,0.183,1.196,0.506,1.196-0.744v-26.875c0-0.917,1.02-0.478,1.527-0.177c19.896,11.808,37.617,27.23,54.244,46.769
			c0.455,0.534,1.361,1.075,1.361,3.241v14.75c0,1.584,0.92,2.39,1.379,2.81c4.776,4.375,9.097,8.622,13.715,13.537
			c0.514,0.546,1.906,0.653,1.906-1.013v-71.47C450.339,254.855,449.776,253.955,449.089,253.955z"/>
	</g>
</g>
</svg>
