<?xml version="1.0" encoding="utf-8"?>
<!-- Generator: Adobe Illustrator 16.0.0, SVG Export Plug-In . SVG Version: 6.00 Build 0)  -->
<!DOCTYPE svg PUBLIC "-//W3C//DTD SVG 1.1//EN" "http://www.w3.org/Graphics/SVG/1.1/DTD/svg11.dtd">
<svg version="1.1" xmlns="http://www.w3.org/2000/svg" xmlns:xlink="http://www.w3.org/1999/xlink" x="0px" y="0px" width="512px"
	 height="512px" viewBox="0 0 512 512" enable-background="new 0 0 512 512" xml:space="preserve">
<g id="Capa_2">
</g>
<g id="Artwork">
</g>
<g id="Layer_3">
</g>
<g id="Layer_4">
</g>
<g id="Layer_5">
	<g>
		<path d="M173.509,190.849c-17.786-18.811-71.367-72.2-71.367-72.2c-3.859-3.919-10.199-3.943-14.088-0.054l-1.89,1.889
			c-3.889,3.89-3.865,10.229,0.055,14.089c0,0,47.042,46.832,62.927,62.234c0.804,0.779,1.78,0.378,1.78,0.378
			s16.177-3.38,22.035-4.726C174.508,192.104,173.801,191.158,173.509,190.849z"/>
		<path d="M229.71,181.179l-95.159-96.354c-3.859-3.919-10.199-3.943-14.088-0.054l-1.89,1.889
			c-3.89,3.889-3.865,10.229,0.054,14.088l86.836,85.784c0,0,0.777,0.764,1.746,0.487c4.879-1.392,18.352-3.964,22.245-4.8
			C230.604,181.972,229.71,181.179,229.71,181.179z"/>
		<path d="M246.347,188.843l-97.886,19.907c-5.377,1.155-6.596,5.282-2.706,9.171l209.292,209.293c3.89,3.889,10.254,3.889,14.143,0
			l56.631-56.632c3.89-3.89,3.89-10.253,0-14.143L263.195,193.814C259.307,189.925,251.724,187.688,246.347,188.843z
			 M283.01,261.854c-1.479,0.938-1.31,1.125,0.332,0.511c27.292-10.23,17.738,37.7-4.743,19.4c-1.194-0.973-1.483-0.97-0.56,0.152
			c19.818,24.098-34.859,30.697-19.344,1.584c0.659-1.24,0.353-1.391-0.531-0.283c-21.047,26.405-40.445-23.611-7.061-17.614
			c0.797,0.145,0.892-0.108,0.172-0.389c-30.664-11.934,8.97-44.233,14.061-13.09c0.271,1.657,0.693,1.504,0.724-0.073
			C266.656,220.02,309.775,244.834,283.01,261.854z"/>
	</g>
</g>
</svg>
