<?xml version="1.0" encoding="utf-8"?>
<!-- Generator: Adobe Illustrator 16.0.0, SVG Export Plug-In . SVG Version: 6.00 Build 0)  -->
<!DOCTYPE svg PUBLIC "-//W3C//DTD SVG 1.1//EN" "http://www.w3.org/Graphics/SVG/1.1/DTD/svg11.dtd">
<svg version="1.1" xmlns="http://www.w3.org/2000/svg" xmlns:xlink="http://www.w3.org/1999/xlink" x="0px" y="0px" width="512px"
	 height="512px" viewBox="0 0 512 512" enable-background="new 0 0 512 512" xml:space="preserve">
<g id="Capa_2">
</g>
<g id="Artwork">
</g>
<g id="Layer_3">
</g>
<g id="Layer_4">
</g>
<g id="Layer_5">
	<g>
		<g>
			<g>
				<path d="M128.117,206.746c-6.409-16.096-27.998-43.564-4.953-69.597c23.044-26.03-80.582,2.877-55.083,78.346
					c8.974,26.552,45.645,42.974,57.495,41.399C137.43,255.323,132.731,218.34,128.117,206.746z"/>
			</g>
			<g>
				<path d="M142.538,224.117c-1.335,0.5-1.603-0.333-1.655-0.731c-1.118-8.524-2.997-16.146-4.634-20.261
					c-0.83-2.082-1.84-4.25-2.942-6.499c-0.153-0.311-0.417-0.915-0.088-1.508c3.09-4.607,9.665-16.645-0.033-25.116
					c-12.055-10.528,36.996-3.46,29.755,32.539C160.649,213.939,149.135,222.443,142.538,224.117z"/>
			</g>
		</g>
		<g>
			<g>
				<path d="M383.883,206.746c6.41-16.096,27.998-43.564,4.953-69.597c-23.044-26.03,80.582,2.877,55.082,78.346
					c-8.973,26.552-45.645,42.974-57.494,41.399C374.57,255.323,379.269,218.34,383.883,206.746z"/>
			</g>
			<g>
				<path d="M369.688,224.198c0.91,0.357,1.398-0.582,1.462-1.063c1.122-8.423,2.98-15.936,4.602-20.01
					c0.786-1.975,1.735-4.025,2.771-6.148c0.208-0.426,0.7-1.297,0.307-1.783c-3.09-4.607-9.713-16.72-0.016-25.191
					c12.056-10.528-36.996-3.46-29.754,32.539C351.352,213.939,363.091,222.524,369.688,224.198z"/>
			</g>
		</g>
		<path d="M394.688,302.225h-26.955c-0.688,0-0.654-0.48-0.564-0.722c0.837-2.259,1.555-4.555,2.147-6.884
			c0.061-0.24,0.115-0.722,0.907-0.722h24.465c3.59,0,6.5-2.91,6.5-6.5s-2.91-6.5-6.5-6.5h-21.924c-1.25,0-1.434-0.769-1.425-1.153
			c0.01-0.449,0.016-0.9,0.016-1.353c0-33.606-24.956-62.435-62.366-76.583c-0.537-0.254-0.493-0.769-0.393-1.021
			c0.701-1.778,1.092-3.704,1.092-5.722c0-8.837-7.351-16-16.419-16c-8.27,0-15.101,5.962-16.239,13.715
			c-0.045,0.308,0.026,1.108-0.81,0.838c-6.516-0.865-12.519-1.227-19.365-1.227c-7.894,0-13.839,0.342-21.283,1.484
			c-1.225,0.179-1.872-0.979-1.98-1.581c-1.346-7.515-8.056-13.229-16.152-13.229c-9.067,0-16.418,7.163-16.418,16
			c0,1.993,0.378,3.898,1.063,5.657c0.241,0.617,1.013,1.665-0.088,2.17c-36.041,14.484-59.642,42.651-59.642,75.499
			c0,0.28,0.002,0.56,0.006,0.839c0.008,0.557,0.153,1.667-1.347,1.667h-26.546c-3.59,0-6.5,2.91-6.5,6.5s2.91,6.5,6.5,6.5
			c0,0,21.66,0,28.879,0c0.958,0,0.994,0.513,1.059,0.769c0.576,2.26,1.271,4.486,2.076,6.678c0.108,0.294,0.323,0.881-0.802,0.881
			h-31.212c-3.59,0-6.5,2.91-6.5,6.5s2.91,6.5,6.5,6.5h37.159c0.909,0,1.798,0.037,2.005,0.42
			c6.797,10.83,16.137,19.824,27.99,27.573c0.342,0.224,0.809,0.837,0.3,1.412l-13.355,13.556c-2.52,2.557-2.489,6.672,0.068,9.191
			c1.267,1.248,2.914,1.87,4.562,1.87c1.68,0,3.359-0.647,4.631-1.938l15.851-16.088c0.586-0.635,1.265-0.479,1.534-0.35
			c2.121,1.021,4.289,1.991,6.501,2.906c0.27,0.111,0.645,0.527,0.181,0.971l-18.135,18.405c-2.52,2.557-2.489,6.672,0.068,9.191
			c1.266,1.248,2.914,1.87,4.562,1.87c1.68,0,3.359-0.647,4.631-1.938l22.472-22.807c0.647-0.665,1.107-0.551,1.329-0.489
			c12.463,3.496,25.95,5.411,40.035,5.411c18.667,0,36.074-3.273,51.644-9.226c0.136-0.052,0.641-0.205,1.066,0.214l21.573,21.896
			c1.272,1.292,2.951,1.938,4.631,1.938c1.647,0,3.295-0.622,4.562-1.87c2.557-2.52,2.588-6.635,0.068-9.191l-18.338-18.612
			c-0.218-0.22-0.023-0.44,0.113-0.512c2.279-1.192,4.498-2.441,6.651-3.75c0.152-0.093,0.524-0.245,0.774,0.047l16.732,16.982
			c1.272,1.291,2.951,1.938,4.631,1.938c1.647,0,3.295-0.622,4.562-1.87c2.557-2.52,2.588-6.635,0.068-9.191l-14.959-15.184
			c-0.555-0.509-0.125-0.892,0.085-1.061c7.623-6.155,14.056-13.153,19.031-20.785c0.202-0.309,0.475-0.931,1.392-0.931h33.549
			c3.59,0,6.5-2.91,6.5-6.5S398.278,302.225,394.688,302.225z M261.977,344.511c-18.438,0-35.564-4.216-49.77-11.428
			c-1.567-0.796-0.772-1.561,1.427-0.781c11.04,3.346,17.08,3.477,29.715,3.477c52.775,0,95.558-32.134,95.558-71.772
			c0-10.08-1.249-16.854-6.243-25.558c-0.837-1.644,1.012-0.386,2.195,0.881c10.145,10.854,16.102,24.077,16.102,38.346
			C350.961,314.587,311.121,344.511,261.977,344.511z"/>
	</g>
</g>
</svg>
