<?xml version="1.0" encoding="utf-8"?>
<!-- Generator: Adobe Illustrator 16.0.0, SVG Export Plug-In . SVG Version: 6.00 Build 0)  -->
<!DOCTYPE svg PUBLIC "-//W3C//DTD SVG 1.1//EN" "http://www.w3.org/Graphics/SVG/1.1/DTD/svg11.dtd">
<svg version="1.1" xmlns="http://www.w3.org/2000/svg" xmlns:xlink="http://www.w3.org/1999/xlink" x="0px" y="0px" width="512px"
	 height="512px" viewBox="0 0 512 512" enable-background="new 0 0 512 512" xml:space="preserve">
<g id="Capa_2">
</g>
<g id="Artwork">
</g>
<g id="Layer_3">
</g>
<g id="Layer_4">
</g>
<g id="Layer_5">
	<g>
		<path d="M261.085,306.912c0,1.156,0.533,1.5,0.939-0.094l52.462-173.284c0.16-0.526-0.145-1.068-0.678-1.205l-51.729-9.054
			c-0.548-0.055-0.995,0.35-0.995,0.899V306.912z"/>
		<path d="M251.11,306.045c0.57,2.159,1.362,1.834,1.362,1.284l-0.424-183.154c0-0.55-0.447-0.955-0.995-0.899l-51.712,9.048
			c-0.533,0.137-0.838,0.679-0.678,1.205L251.11,306.045z"/>
		<path d="M292.027,366.345c0-4.273-0.813-8.164-3.3-10.712l-27.072-27.75c-2.486-2.548-6.554-2.548-9.04,0l-27.072,27.75
			c-2.486,2.548-3.3,6.751-3.3,10.712c0,10.154,2.215,22.386,34.892,22.386C292.43,388.73,292.027,376.499,292.027,366.345z
			 M257.135,379.985c-25.043,0-26.739-9.091-26.739-16.637c0-0.933,0.067-1.881,0.216-2.803c0.044-0.271,0.413-0.759,0.538,0.085
			c1.214,6.214,5.884,11.179,25.985,11.179c21.114,0,25.049-4.314,25.983-10.335c0.125-0.938,0.615-0.539,0.652-0.188
			c0.071,0.668,0.105,1.356,0.105,2.062C283.876,370.895,284.185,379.985,257.135,379.985z"/>
		<path d="M227.925,339.199c0.385-0.394,0.349-0.999-0.078-1.346L92.116,227.918c-0.428-0.346-0.943-0.211-1.146,0.301
			l-14.88,47.543c-0.128,0.535,0.181,1.151,0.686,1.37l147.875,64.086c0.504,0.219,1.231,0.075,1.615-0.318L227.925,339.199z"/>
		<path d="M237.215,329.676c0.385-0.394,0.433-1.079,0.108-1.523L127.481,177.79c-0.324-0.444-0.884-0.467-1.243-0.051
			l-30.166,40.476c-0.297,0.463-0.19,1.125,0.237,1.471l137.873,111.674c0.428,0.346,1.091,0.307,1.476-0.087L237.215,329.676z"/>
		<path d="M245.536,321.344c0.346-0.277,0.497-0.934,0.337-1.46l-55.714-183.266c-0.16-0.526-0.692-0.755-1.184-0.508
			l-54.696,33.972c-0.438,0.332-0.532,0.967-0.208,1.411L243.734,321.61C244.059,322.055,245.189,321.619,245.536,321.344z"/>
		<path d="M268.04,320.789c0.229,0.176,0.683-0.044,1.007-0.488l109.23-149.526c0.324-0.444,0.23-1.077-0.21-1.407l-53.892-33.252
			c-0.491-0.246-1.024-0.018-1.185,0.509l-55.512,182.6C267.319,319.75,267.812,320.612,268.04,320.789z"/>
		<path d="M277.532,330.166c0.384,0.394,1.048,0.433,1.475,0.086l137.412-111.299c0.427-0.346,0.532-1.007,0.233-1.469
			l-30.511-40.505c-0.361-0.414-0.923-0.39-1.247,0.055L275.548,326.719c-0.324,0.444-0.276,1.13,0.108,1.523L277.532,330.166z"/>
		<path d="M287.666,340.553c0.384,0.394,1.111,0.537,1.616,0.318l147.076-63.739c0.504-0.219,0.813-0.835,0.685-1.37l-15.239-48.313
			c-0.204-0.511-0.721-0.646-1.148-0.3L285.344,336.746c-0.428,0.347-0.463,0.952-0.079,1.346L287.666,340.553z"/>
		<path d="M297.685,350.67c-0.64-0.833-2.847-3.51-3.509-4.188c-0.661-0.679-1.02-1.363-0.796-1.522
			c0.225-0.16,1.66-0.793,3.191-1.408l135.827-54.583c1.531-0.615,3.007-1.104,3.279-1.085s0.569,1.931,0.597,3.581l0.747,44.653
			c0.027,1.65-0.466,3.795-4.014,4.381l-131.174,11.543C300.19,352.186,299.118,352.537,297.685,350.67z"/>
		<path d="M214.269,350.67c0.64-0.833,2.847-3.51,3.509-4.188c0.661-0.679,1.02-1.363,0.796-1.522
			c-0.225-0.16-1.66-0.793-3.191-1.408L79.555,288.968c-1.531-0.615-3.007-1.104-3.279-1.085s-0.569,1.931-0.597,3.581
			l-0.747,44.653c-0.027,1.65,0,4.046,4.014,4.381l131.174,11.543C211.763,352.186,212.835,352.537,214.269,350.67z"/>
	</g>
</g>
</svg>
