<?xml version="1.0" encoding="utf-8"?>
<!-- Generator: Adobe Illustrator 16.0.0, SVG Export Plug-In . SVG Version: 6.00 Build 0)  -->
<!DOCTYPE svg PUBLIC "-//W3C//DTD SVG 1.1//EN" "http://www.w3.org/Graphics/SVG/1.1/DTD/svg11.dtd">
<svg version="1.1" xmlns="http://www.w3.org/2000/svg" xmlns:xlink="http://www.w3.org/1999/xlink" x="0px" y="0px" width="512px"
	 height="512px" viewBox="0 0 512 512" enable-background="new 0 0 512 512" xml:space="preserve">
<g id="Capa_2">
</g>
<g id="Artwork">
</g>
<g id="Layer_3">
</g>
<g id="Layer_4">
</g>
<g id="Layer_5">
	<g>
		<path d="M152.768,447.282c0,2.201-1.8,4-4,4h-22c-2.2,0-4-1.799-4-4V322.876c0-2.199,1.8-4,4-4h22c2.2,0,4,1.801,4,4V447.282z"/>
		<path d="M152.768,77.368c0,2.201-1.8,4-4,4h-22c-2.2,0-4-1.799-4-4v-12.65c0-2.201,1.8-4,4-4h22c2.2,0,4,1.799,4,4V77.368z"/>
		<g>
			<path d="M389.232,302.87c0,2.199-1.8,4-4,4H126.768c-2.2,0-4-1.801-4-4V97.376c0-2.199,1.8-4,4-4h258.465c2.2,0,4,1.801,4,4
				V302.87z M152.768,287.411c0,2.199,1.8,4,4,4h213.006c2.2,0,4-1.801,4-4V112.835c0-2.199-1.8-4-4-4H156.768c-2.2,0-4,1.801-4,4
				V287.411z"/>
		</g>
		<circle cx="264.771" cy="204.306" r="50"/>
	</g>
</g>
</svg>
