<?xml version="1.0" encoding="utf-8"?>
<!-- Generator: Adobe Illustrator 16.0.0, SVG Export Plug-In . SVG Version: 6.00 Build 0)  -->
<!DOCTYPE svg PUBLIC "-//W3C//DTD SVG 1.1//EN" "http://www.w3.org/Graphics/SVG/1.1/DTD/svg11.dtd">
<svg version="1.1" xmlns="http://www.w3.org/2000/svg" xmlns:xlink="http://www.w3.org/1999/xlink" x="0px" y="0px" width="512px"
	 height="512px" viewBox="0 0 512 512" enable-background="new 0 0 512 512" xml:space="preserve">
<g id="Capa_2">
</g>
<g id="Artwork">
</g>
<g id="Layer_3">
</g>
<g id="Layer_4">
</g>
<g id="Layer_5">
	<g>
		<path d="M224.366,363.769c-0.599-0.17-1.569-0.472-2.158-0.672c0,0-60.259-20.441-82.351-58.289
			c-10.888-18.651-14.907-55.922-14.907-55.922c-0.066-0.618-0.617-1.01-1.223-0.87c0,0-47.433,10.906-48.814,13.459
			c-2.135,3.945,12.221,70.301,60.174,96.249c30.606,16.562,89.717,6.672,89.717,6.672c0.613-0.103,0.626-0.325,0.027-0.495
			L224.366,363.769z"/>
		<path d="M287.4,363.834c0.727-0.205,2.285-0.701,3.463-1.101c0,0,59.188-20.078,81.279-57.926
			c10.887-18.651,14.785-54.798,14.785-54.798c0.133-1.236,1.232-2.02,2.445-1.741c0,0,46.332,10.653,47.713,13.206
			c2.137,3.945-12.221,70.301-60.174,96.249c-30.605,16.562-88.602,6.858-88.602,6.858
			C287.084,364.377,286.674,364.041,287.4,363.834z"/>
		<path d="M213.98,332.785c-13.171-17.545-28.872-45.248-28.872-77.598c0-22.336,15.872-57.451,15.872-57.451
			c0.26-0.574-0.018-1.206-0.615-1.405c0,0-46.897-15.586-49.44-14.102c-3.926,2.293-26.431,67.28,1.414,114.983
			c18.43,31.573,76.672,53.764,76.672,53.764c0.589,0.225,0.716,0.035,0.281-0.422C229.292,350.555,219.87,340.632,213.98,332.785z"
			/>
		<path d="M361.074,182.229c-2.477-1.444-47.502,13.153-47.502,13.153c-0.6,0.194-0.873,0.821-0.607,1.393
			c0,0,16.545,35.67,16.545,58.412c0,32.271-15.846,60.024-29.139,77.625c-5.48,7.254-14.379,16.765-14.379,16.765
			c-0.43,0.46-0.305,0.642,0.279,0.405c0,0,55.807-22.648,73.389-52.77C387.506,249.51,365,184.522,361.074,182.229z"/>
		<path d="M316.615,254.682c0,57.674-54.942,104.428-59.249,104.428c-4.994,0-59.247-46.754-59.247-104.428
			c0-57.671,53.906-104.426,59.247-104.426C262.112,150.256,316.615,197.011,316.615,254.682z"/>
	</g>
</g>
</svg>
