<?xml version="1.0" encoding="utf-8"?>
<!-- Generator: Adobe Illustrator 16.0.0, SVG Export Plug-In . SVG Version: 6.00 Build 0)  -->
<!DOCTYPE svg PUBLIC "-//W3C//DTD SVG 1.1//EN" "http://www.w3.org/Graphics/SVG/1.1/DTD/svg11.dtd">
<svg version="1.1" xmlns="http://www.w3.org/2000/svg" xmlns:xlink="http://www.w3.org/1999/xlink" x="0px" y="0px" width="512px"
	 height="512px" viewBox="0 0 512 512" enable-background="new 0 0 512 512" xml:space="preserve">
<g id="Capa_2">
</g>
<g id="Artwork">
</g>
<g id="Layer_3">
</g>
<g id="Layer_4">
</g>
<g id="Layer_5">
	<g>
		<path d="M311.172,228.037c38.797,11.465,26.51-50.785-4.785-24.51c-1.541,1.295-2.043,1.016-0.677-0.635
			c25.671-30.996-38.599-42.023-24.369-2.543c0.334,0.926,0.014,1.045-0.516,0.16c-22.22-37.119-54.039,23.451-11.017,21.551
			c1.807-0.08,1.918,0.344,0.174,0.746c-40.991,9.488,11.183,56.52,17.734,17.27c0.306-1.828,0.551-1.553,0.617,0.41
			c1.252,36.951,55.334,5.959,22.626-11.701C308.992,227.723,309.028,227.402,311.172,228.037z M299.714,221.316
			c-2.127-0.32-2.822,0.832-1.545,2.564c1.276,1.73,1.491,3.76,0.477,4.508s-2.89-0.055-4.167-1.785s-2.585-1.408-2.906,0.719
			c-0.32,2.127-1.604,3.715-2.851,3.525c-1.247-0.188-2.005-2.082-1.684-4.209s-0.833-2.822-2.563-1.545
			c-1.731,1.277-3.76,1.492-4.509,0.477c-0.749-1.014,0.055-2.889,1.786-4.166c1.73-1.277,1.406-2.586-0.721-2.906
			s-3.713-1.604-3.525-2.852c0.188-1.246,2.082-2.004,4.21-1.684c2.127,0.32,2.822-0.832,1.545-2.563
			c-1.277-1.732-1.491-3.76-0.477-4.51c1.015-0.748,2.89,0.055,4.167,1.787c1.277,1.73,2.584,1.406,2.905-0.721
			s1.604-3.713,2.851-3.525s2.005,2.082,1.684,4.209c-0.32,2.127,0.833,2.822,2.564,1.545c1.73-1.277,3.76-1.492,4.508-0.477
			c0.749,1.016-0.055,2.891-1.785,4.168c-1.73,1.275-1.407,2.584,0.72,2.904c2.128,0.32,3.714,1.604,3.525,2.852
			C303.735,220.879,301.841,221.637,299.714,221.316z"/>
		<path d="M178.529,368.352c30.992,9.158,21.178-40.568-3.822-19.578c-1.231,1.033-1.633,0.811-0.541-0.508
			c20.507-24.762-30.834-33.57-19.467-2.031c0.267,0.74,0.011,0.836-0.412,0.129c-17.75-29.654-43.168,18.732-8.8,17.215
			c1.442-0.064,1.532,0.273,0.138,0.596c-32.745,7.578,8.934,45.15,14.168,13.795c0.244-1.461,0.439-1.24,0.492,0.328
			c1.001,29.518,44.203,4.762,18.075-9.348C176.788,368.1,176.816,367.846,178.529,368.352z M169.376,362.982
			c-1.699-0.256-2.254,0.666-1.234,2.049c1.021,1.383,1.191,3.004,0.381,3.602s-2.309-0.043-3.329-1.426
			c-1.02-1.383-2.064-1.125-2.32,0.574c-0.257,1.699-1.281,2.967-2.277,2.816s-1.602-1.664-1.346-3.363
			c0.257-1.699-0.665-2.254-2.048-1.234c-1.382,1.021-3.003,1.191-3.601,0.381c-0.599-0.811,0.043-2.309,1.426-3.328
			s1.124-2.064-0.575-2.32c-1.699-0.258-2.966-1.281-2.816-2.277c0.15-0.996,1.664-1.602,3.362-1.346
			c1.699,0.256,2.255-0.666,1.234-2.049c-1.02-1.383-1.191-3.002-0.381-3.602c0.811-0.598,2.309,0.045,3.329,1.428
			s2.064,1.123,2.321-0.576c0.256-1.699,1.281-2.967,2.277-2.816s1.602,1.664,1.345,3.363c-0.256,1.699,0.665,2.254,2.048,1.234
			s3.004-1.191,3.602-0.381c0.599,0.811-0.043,2.309-1.426,3.328c-1.383,1.021-1.124,2.064,0.575,2.322
			c1.699,0.256,2.966,1.281,2.815,2.277S171.075,363.24,169.376,362.982z"/>
		<path d="M375.877,282.146c31.346,9.264,21.418-41.029-3.865-19.801c-1.246,1.045-1.65,0.82-0.548-0.512
			c20.741-25.045-31.184-33.953-19.688-2.057c0.27,0.748,0.011,0.846-0.417,0.131c-17.951-29.99-43.66,18.945-8.9,17.41
			c1.459-0.064,1.55,0.277,0.141,0.604c-33.118,7.664,9.034,45.664,14.328,13.951c0.246-1.477,0.444-1.254,0.498,0.332
			c1.012,29.854,44.705,4.814,18.28-9.453C374.115,281.893,374.146,281.635,375.877,282.146z M366.62,276.717
			c-1.718-0.258-2.28,0.674-1.248,2.072c1.031,1.398,1.205,3.037,0.385,3.643c-0.819,0.604-2.335-0.045-3.366-1.443
			c-1.032-1.398-2.089-1.137-2.348,0.582c-0.26,1.719-1.296,3-2.303,2.848c-1.008-0.152-1.62-1.682-1.361-3.4
			c0.26-1.719-0.673-2.279-2.071-1.248s-3.037,1.205-3.642,0.385c-0.605-0.82,0.043-2.334,1.441-3.367
			c1.398-1.031,1.137-2.088-0.581-2.348c-1.719-0.258-3-1.295-2.849-2.303c0.152-1.008,1.683-1.619,3.401-1.359
			c1.718,0.258,2.28-0.674,1.248-2.072s-1.205-3.037-0.386-3.643c0.82-0.605,2.336,0.045,3.367,1.443s2.088,1.137,2.348-0.582
			c0.259-1.719,1.296-3,2.303-2.848c1.008,0.152,1.62,1.682,1.361,3.4c-0.26,1.719,0.672,2.279,2.07,1.248s3.038-1.205,3.643-0.385
			c0.605,0.82-0.044,2.334-1.442,3.367c-1.398,1.031-1.137,2.088,0.582,2.346c1.718,0.26,3,1.297,2.848,2.305
			C369.869,276.365,368.339,276.977,366.62,276.717z"/>
		<path d="M444.056,169.988c36.632,10.826,25.031-47.951-4.518-23.141c-1.456,1.223-1.93,0.959-0.64-0.6
			c24.239-29.268-36.444-39.678-23.009-2.402c0.315,0.875,0.013,0.988-0.487,0.152c-20.98-35.049-51.024,22.143-10.401,20.348
			c1.705-0.074,1.811,0.324,0.163,0.705c-38.703,8.959,10.559,53.367,16.745,16.307c0.288-1.729,0.52-1.467,0.583,0.387
			c1.183,34.889,52.246,5.627,21.363-11.049C441.997,169.691,442.031,169.391,444.056,169.988z M431.803,162.74
			c-1.694-0.256-2.249,0.664-1.231,2.043s1.189,2.996,0.381,3.594c-0.81,0.596-2.304-0.045-3.321-1.424s-2.06-1.121-2.315,0.574
			s-1.278,2.959-2.271,2.809c-0.994-0.15-1.598-1.658-1.342-3.354c0.255-1.695-0.664-2.25-2.043-1.232
			c-1.38,1.018-2.996,1.189-3.594,0.381c-0.596-0.809,0.044-2.303,1.424-3.32c1.379-1.018,1.121-2.061-0.574-2.316
			s-2.959-1.277-2.81-2.271c0.15-0.994,1.659-1.598,3.354-1.342s2.249-0.664,1.231-2.043s-1.188-2.996-0.38-3.592
			c0.809-0.598,2.303,0.043,3.32,1.422s2.06,1.121,2.315-0.574s1.278-2.959,2.272-2.809c0.993,0.15,1.598,1.66,1.342,3.354
			c-0.256,1.695,0.663,2.25,2.043,1.232c1.379-1.018,2.996-1.189,3.592-0.381c0.598,0.809-0.043,2.305-1.422,3.322
			c-1.38,1.018-1.121,2.059,0.573,2.314c1.695,0.256,2.959,1.277,2.81,2.271C435.007,162.393,433.498,162.996,431.803,162.74z"/>
		<path d="M388.061,197.635c1.391-1.074,0.66-1.727,0.275-2.146c-3.893-4.242-6.592-9.471-7.213-14.904
			c-0.015-0.129-0.029-0.268-0.043-0.414c-0.049-0.549-0.379-1.734-1.869-0.834c-11.098,7.057-21.023,13.029-35.829,21.066
			c-1.742,1.242-0.862,2.021-0.607,2.656c1.409,3.504,2.15,7.303,2.151,11.064c0,2.623-0.335,5.102-0.963,7.406
			c-0.159,0.586,0.176,1.344,2.032,0.371C363.606,212.676,375.097,205.801,388.061,197.635z"/>
		<g>
			<path d="M412.477,252.908c-4.325,1.496-5.668,2.109-9.859,3.465c-2.229,0.688-0.92,1.984-0.54,2.719
				c1.431,2.758,2.348,5.805,2.704,8.9c0.057,0.494,0.045,1.506,1.262,1.09c3.918-1.34,6.966-2.447,10.79-3.891
				c0.431-0.162,1.389-0.629,1.012-1.326l-3.99-10.512C413.854,253.354,413.597,252.52,412.477,252.908z"/>
			<path d="M318.508,275.867c-0.855-1.482-1.503-3.07-1.953-4.725c-0.141-0.518-0.249-1.602-1.745-1.602
				c-11.547-0.225-20.517-1.18-29.364-2.473c-11.593-1.691-20.137-3.607-28.212-5.893c-0.844-0.406-0.765-0.621,0.172-0.938
				c0.858-0.365-0.06-1.246-0.652-1.707c-5.169-4.012-9.199-9.549-10.915-15.557c-0.195-0.682-0.531-1.961-2.748-1.486
				c-58.277,15.139-122.495,20.357-190.06-0.385c0,0-5.059-1.084-5.659,4.293c-0.458,4.098-1.37,11.629-2.187,18.016
				c-0.962,7.525,2.715,7.895,2.715,7.895c15.997,4.91,26.146,6.947,43.261,8.945c2.468,0.145,4.192,1.236,4.872,1.711
				c12.205,8.555,28.721,22.602,41.261,44.938c0.555,0.859,1.189,0.566,1.588,0.514c0.816-0.107,1.643-0.168,2.476-0.168
				c1.188,0,2.489,0.1,3.865,0.383c0.433,0.088,0.636,0.02,0.808-0.258c0.461-0.746,0.849-1.48,1.294-2.113
				c1.538-2.189,3.013-3.699,5.26-5.107c0.556-0.371,0.261-0.838,0.154-1.102c-6-14.857-13.342-26.756-21.438-35.027
				c-0.457-0.465-1.036-1.086,0.464-1.369c17.842,0,34.335-1.461,53.072-4.398c8.768-1.375,17.636-3.09,26.584-5.109
				c0.988-0.223,2.219-0.416,4.707-0.416c19.428,2.957,45.935,6.896,66.393,9.93c10.506,1.557,22.952,2.639,37.077,2.689
				c1.375-0.016,1.505-0.611,1.587-0.92c0.246-0.93,0.566-1.855,0.975-2.768c0.128-0.285,0.02-1.098-0.77-1.982
				C320.143,278.281,319.159,276.994,318.508,275.867z"/>
		</g>
	</g>
</g>
</svg>
