<?xml version="1.0" encoding="utf-8"?>
<!-- Generator: Adobe Illustrator 16.0.0, SVG Export Plug-In . SVG Version: 6.00 Build 0)  -->
<!DOCTYPE svg PUBLIC "-//W3C//DTD SVG 1.1//EN" "http://www.w3.org/Graphics/SVG/1.1/DTD/svg11.dtd">
<svg version="1.1" xmlns="http://www.w3.org/2000/svg" xmlns:xlink="http://www.w3.org/1999/xlink" x="0px" y="0px" width="512px"
	 height="512px" viewBox="0 0 512 512" enable-background="new 0 0 512 512" xml:space="preserve">
<g id="Capa_2">
</g>
<g id="Artwork">
</g>
<g id="Layer_3">
</g>
<g id="Layer_4">
</g>
<g id="Layer_5">
	<g>
		<path d="M183.093,162.615c-1.518,0.647-1.41,1.177,0.24,1.177h155.243c1.65,0,1.758-0.529,0.24-1.177l-56.699-24.182
			c-1.518-0.647-2.9-1.999-3.074-3.004c-0.172-1.005,0.654-2.77,1.836-3.921l11.383-11.097c1.182-1.151,0.813-2.288-0.82-2.525
			l-15.73-2.285c-1.633-0.237-3.566-1.643-4.297-3.122l-7.035-14.255c-0.73-1.479-1.926-1.479-2.656,0l-7.036,14.255
			c-0.73,1.479-2.664,2.885-4.296,3.122l-15.731,2.285c-1.633,0.237-2.002,1.374-0.82,2.525l11.383,11.097
			c1.182,1.151,2.082,2.482,2,2.957s-1.39,1.393-2.907,2.04L183.093,162.615z"/>
		<path d="M400.023,173.349c-3.672,0-6.563,2.142-6.684,2.232c-1.156,0.868-3.354,1.602-4.799,1.602H123.458
			c-1.446,0-3.643-0.733-4.798-1.603c-0.121-0.091-3.013-2.231-6.684-2.231c-6.8,0-12.333,5.532-12.333,12.333
			s5.533,12.334,12.333,12.334c3.671,0,6.562-2.141,6.683-2.231c1.155-0.868,3.353-1.602,4.798-1.602h9.175c1.103,0,2,0.897,2,2
			v214.703c0,2.206,1.794,4,4,4h5.613c2.206,0,4-1.794,4-4v-17.658c0-1.103,0.897-2,2-2h61.352c1.103,0,2,0.897,2,2v17.658
			c0,2.206,1.794,4,4,4h5.613c2.206,0,4-1.794,4-4v-17.658c0-1.103,0.897-2,2-2h68.78c1.102,0,2,0.897,2,2v17.658
			c0,2.206,1.793,4,4,4h5.613c2.205,0,4-1.794,4-4v-17.658c0-1.103,0.896-2,2-2h52.768c1.102,0,2,0.897,2,2v17.658
			c0,2.206,1.793,4,4,4h5.613c2.205,0,4-1.794,4-4V196.183c0-1.103,0.896-2,2-2h2.559c1.445,0,3.643,0.733,4.797,1.602
			c0.121,0.091,3.012,2.231,6.684,2.231c6.801,0,12.334-5.533,12.334-12.334S406.824,173.349,400.023,173.349z M313.604,343.06
			c0-1.103,0.896-2,2-2h52.768c1.102,0,2,0.897,2,2v36.426c0,1.103-0.898,2-2,2h-52.768c-1.104,0-2-0.897-2-2V343.06z
			 M370.371,228.98c0,1.103-0.898,2-2,2h-52.768c-1.104,0-2-0.897-2-2v-32.798c0-1.103,0.896-2,2-2h52.768c1.102,0,2,0.897,2,2
			V228.98z M313.604,242.723c0-1.103,0.896-2,2-2h52.768c1.102,0,2,0.897,2,2v36.426c0,1.103-0.898,2-2,2h-52.768
			c-1.104,0-2-0.897-2-2V242.723z M313.604,292.891c0-1.103,0.896-2,2-2h52.768c1.102,0,2,0.897,2,2v36.427c0,1.103-0.898,2-2,2
			h-52.768c-1.104,0-2-0.897-2-2V292.891z M227.21,343.06c0-1.103,0.897-2,2-2h68.78c1.102,0,2,0.897,2,2v36.426
			c0,1.103-0.898,2-2,2h-68.78c-1.103,0-2-0.897-2-2V343.06z M299.99,228.98c0,1.103-0.898,2-2,2h-68.78c-1.103,0-2-0.897-2-2
			v-32.798c0-1.103,0.897-2,2-2h68.78c1.102,0,2,0.897,2,2V228.98z M227.21,242.723c0-1.103,0.897-2,2-2h68.78c1.102,0,2,0.897,2,2
			v36.426c0,1.103-0.898,2-2,2h-68.78c-1.103,0-2-0.897-2-2V242.723z M227.21,292.891c0-1.103,0.897-2,2-2h68.78
			c1.102,0,2,0.897,2,2v36.427c0,1.103-0.898,2-2,2h-68.78c-1.103,0-2-0.897-2-2V292.891z M148.245,343.06c0-1.103,0.897-2,2-2
			h61.352c1.103,0,2,0.897,2,2v36.426c0,1.103-0.897,2-2,2h-61.352c-1.103,0-2-0.897-2-2V343.06z M213.597,228.98
			c0,1.103-0.897,2-2,2h-61.352c-1.103,0-2-0.897-2-2v-32.798c0-1.103,0.897-2,2-2h61.352c1.103,0,2,0.897,2,2V228.98z
			 M148.245,242.723c0-1.103,0.897-2,2-2h61.352c1.103,0,2,0.897,2,2v36.426c0,1.103-0.897,2-2,2h-61.352c-1.103,0-2-0.897-2-2
			V242.723z M148.245,292.891c0-1.103,0.897-2,2-2h61.352c1.103,0,2,0.897,2,2v36.427c0,1.103-0.897,2-2,2h-61.352
			c-1.103,0-2-0.897-2-2V292.891z"/>
	</g>
</g>
</svg>
