<?xml version="1.0" encoding="utf-8"?>
<!-- Generator: Adobe Illustrator 16.0.0, SVG Export Plug-In . SVG Version: 6.00 Build 0)  -->
<!DOCTYPE svg PUBLIC "-//W3C//DTD SVG 1.1//EN" "http://www.w3.org/Graphics/SVG/1.1/DTD/svg11.dtd">
<svg version="1.1" xmlns="http://www.w3.org/2000/svg" xmlns:xlink="http://www.w3.org/1999/xlink" x="0px" y="0px" width="512px"
	 height="512px" viewBox="0 0 512 512" enable-background="new 0 0 512 512" xml:space="preserve">
<g id="Capa_2">
</g>
<g id="Artwork">
</g>
<g id="Layer_3">
</g>
<g id="Layer_4">
</g>
<g id="Layer_5">
	<g>
		<path d="M215.442,104.733c-11.289-3.638-20.15-7.207-46.361-10.07c-27.239-2.976-34.117-1.356-45.394-0.081
			C109.137,96.228,97.88,108.5,96.29,123.056L73.729,310.539c-1.59,14.558,7.546,27.727,22.455,34.616
			c10.352,4.782,22.288,8.093,44.389,10.507c23.469,2.563,35.863,1.116,47.652-0.6c17.353-2.527,27.821-14.248,29.411-28.804
			l18.446-187.933C237.673,123.77,229.38,109.222,215.442,104.733z M123.252,189.479c-25.267,37.053-13.79,69.037-20.521,66.03
			c-6.427-2.872-16.134-53.912,0.115-82.814c13.201-23.481,36.646-39.345,54.099-31.523
			C170.185,147.105,140.71,163.878,123.252,189.479z M201.145,266.259c-7.223,1.483,10.888-27.271-5.784-68.903
			c-11.519-28.766-36.677-51.507-22.468-54.441c18.729-3.869,38.197,16.681,46.018,42.459
			C228.537,217.102,208.04,264.842,201.145,266.259z"/>
		<path d="M437.522,358.893l-48.605-182.475c-3.614-14.188-16.479-24.764-31.117-24.353c-11.344,0.316-18.38-0.324-44.935,6.439
			c-25.551,6.508-33.824,11.283-44.494,16.466c-13.17,6.397-19.343,21.964-15.73,36.153l44.596,183.496
			c3.614,14.188,15.622,24.327,33.156,24.397c11.914,0.048,24.388-0.256,47.267-6.083c21.545-5.485,32.899-10.436,42.479-16.621
			C433.936,387.401,441.136,373.082,437.522,358.893z M305.161,332.9c-7.026-0.438-34.009-44.833-28.924-77.599
			c4.132-26.62,20.529-49.695,39.616-48.488c14.48,0.914-7.244,26.957-14.62,57.053C290.559,307.426,312.52,333.356,305.161,332.9z
			 M401.098,308.469c-6.245,3.92,0.638-29.357-29.57-62.504c-20.874-22.903-52.407-35.381-40.128-43.109
			c16.184-10.19,41.621,2.23,57.982,23.631C409.519,252.828,407.059,304.725,401.098,308.469z"/>
	</g>
</g>
</svg>
