<?xml version="1.0" encoding="utf-8"?>
<!-- Generator: Adobe Illustrator 16.0.0, SVG Export Plug-In . SVG Version: 6.00 Build 0)  -->
<!DOCTYPE svg PUBLIC "-//W3C//DTD SVG 1.1//EN" "http://www.w3.org/Graphics/SVG/1.1/DTD/svg11.dtd">
<svg version="1.1" xmlns="http://www.w3.org/2000/svg" xmlns:xlink="http://www.w3.org/1999/xlink" x="0px" y="0px" width="512px"
	 height="512px" viewBox="0 0 512 512" enable-background="new 0 0 512 512" xml:space="preserve">
<g id="Capa_2">
</g>
<g id="Artwork">
</g>
<g id="Layer_3">
</g>
<g id="Layer_4">
</g>
<g id="Layer_5">
	<g>
		<g>
			<g>
				<path d="M284.914,182.678c-0.537,0-1.082-0.145-1.574-0.448c-1.408-0.871-1.846-2.72-0.975-4.129
					c3.227-5.224,13.031-13.241,27.047-6.188c2.107,1.06,3.826,0.489,5.102-1.702c0.834-1.432,2.67-1.915,4.104-1.082
					c1.43,0.834,1.914,2.671,1.08,4.103c-3.516,6.034-9.189,5.947-12.98,4.041c-12.66-6.371-18.982,3.556-19.248,3.982
					C286.902,182.173,285.92,182.678,284.914,182.678z"/>
			</g>
			<g>
				<path d="M227.086,182.678c-1,0-1.979-0.501-2.547-1.411c-0.68-1.07-6.939-10.192-19.254-3.995
					c-3.791,1.908-9.467,1.995-12.982-4.041c-0.834-1.432-0.35-3.268,1.08-4.103c1.436-0.833,3.27-0.349,4.104,1.082
					c1.277,2.192,2.996,2.762,5.104,1.701c14.014-7.052,23.818,0.965,27.045,6.189c0.871,1.409,0.436,3.258-0.975,4.129
					C228.17,182.534,227.625,182.678,227.086,182.678z"/>
			</g>
		</g>
		<path d="M268.816,222.928c-0.665,6.211-8.205,11.311-12.641,11.311c-3.548,0-12.641-5.064-12.641-11.311
			c0-13.084,10.078-3.77,12.641-3.77C259.502,219.158,270.147,210.509,268.816,222.928z"/>
		<path d="M256,63.409c-56.24,0-101.83,45.591-101.83,101.831v32.37c0,27.668,9.18,52.886,27.088,71.239
			c2.492,1.777,3.998,0.57,5.102-0.137c8.18-5.232,17.648-10.659,28.318-13.361l0,0c6.488-1.639,8.943-2.546,13.646-3.682
			c2.379-0.575,2.604-2.02-0.621-2.931c-29.029-8.206-43.563-36.209-43.563-69.411c0,0,0-16.651,0-22.202
			c0-2.25,1.092-2.975,2.842-2.975c5.595,0,17.924,0,22.811,0c1.982,0,2.42-1.279,2.883-3.072c1.09-4.218,3.334-23.785,6.117-23.745
			s4.811,19.766,5.75,23.935c0.381,1.692,0.916,2.881,2.707,2.881c22.426,0,84.84,0,98.107,0c1.613,0,2.5,1.038,2.5,3.1
			c0,5.519,0,22.077,0,22.077c0,33.729-14.873,62.087-44.928,69.779c-2.57,0.658-2.146,1.822-0.154,2.1
			c4.498,0.628,6.725,1.668,13.326,3.108c10.852,2.583,22.502,8.417,31.227,13.567c0.959,0.567,2.547,1.37,4.891-0.664
			c17.193-18.232,25.611-42.57,25.611-69.607v-32.37C357.83,109,312.238,63.409,256,63.409z"/>
		<g>
			<path d="M199.637,333.451c-11.313-9.245-19.952-16.927-28.342-25.033c-1-0.747-1.771,0.126-2.008,0.848
				c-2.245,6.836-3.447,14.54-3.447,23.185c0,0,0,84.288,0,112.384c0,1.211,0,3.757,3.06,3.757c44.042,0,132.583,0,176.167-0.365
				c3.454-0.029,3.348-1.498,3.355-3.891c0.029-9.213,0.099-31.691,0.099-32.96c0-2.5-1.743-3.459-2.558-3.662
				C286.119,392.84,231.955,359.858,199.637,333.451z"/>
			<path d="M289.981,267.8c-10.72,6.5-21.8,9.349-35.251,9.349c-12.865,0-23.351-2.565-33.756-8.55
				c-1.575-1.015-3.123-0.475-3.893-0.264c-16.418,4.505-30.072,12.35-39.144,24.314c-0.83,1.095-2.039,4.184-0.366,5.354
				c8.804,8.658,17.451,16.482,29.753,26.521c31.474,25.682,79.816,57.771,137.744,71.978c1.146,0.281,3.451,0.021,3.451-2.002
				v-62.05c0-37.716-22.86-57.57-55.481-65.19C292.521,267.139,291.482,266.583,289.981,267.8z"/>
		</g>
	</g>
</g>
</svg>
