<?xml version="1.0" encoding="utf-8"?>
<!-- Generator: Adobe Illustrator 16.0.0, SVG Export Plug-In . SVG Version: 6.00 Build 0)  -->
<!DOCTYPE svg PUBLIC "-//W3C//DTD SVG 1.1//EN" "http://www.w3.org/Graphics/SVG/1.1/DTD/svg11.dtd">
<svg version="1.1" xmlns="http://www.w3.org/2000/svg" xmlns:xlink="http://www.w3.org/1999/xlink" x="0px" y="0px" width="512px"
	 height="512px" viewBox="0 0 512 512" enable-background="new 0 0 512 512" xml:space="preserve">
<g id="Capa_2">
</g>
<g id="Artwork">
</g>
<g id="Layer_3">
</g>
<g id="Layer_4">
</g>
<g id="Layer_5">
	<g>
		<path d="M375.444,371.567L222.462,138.797c-3.1-4.718-7.795-7.423-12.877-7.423c-5.209,0-9.955,2.811-13.023,7.712L51.042,371.631
			c-3.166,5.06-3.535,10.572-1.013,15.127s7.392,7.166,13.36,7.166h299.995c6.013,0,10.881-2.633,13.358-7.225
			C379.22,382.107,378.746,376.593,375.444,371.567z M209.675,149.604c1.529,0,2.417,1.472,2.417,1.472l92.719,138.025
			c5.974,10.753,1.974,14.087-9.36,3.087c0,0-33.561-38.945-46.108-50.578c-3.15-2.921-9.553-3.67-13.12-1.275
			c-9.288,6.233-25.457,21.991-34.852,28.064c-3.607,2.331-8.505,0.328-9.525-3.846c-3.373-13.793-6.196-42.209-9.754-55.955
			c-1.076-4.159-5.102-4.926-8.567-2.387c-0.858,0.629-2.687,1.727-3.603,2.268c-1.06,0.625-0.469-0.259-0.469-0.259l37.937-57.292
			C207.389,150.928,208.079,149.604,209.675,149.604z"/>
		<path d="M460.99,339.119L320.205,124.907c-2.853-4.341-7.173-6.831-11.851-6.831c-4.794,0-9.162,2.587-11.984,7.098
			l-29.411,46.999c0,0-1.099,1.681-0.247,3.573c0.951,2.113,3.63,5.949,5.093,7.748c1.14,1.401,2.586-0.974,2.586-0.974
			l32.201-48.845c0,0,0.873-1.301,1.846-1.301c1.11,0,1.948,1.386,1.948,1.386l91.624,135.561c2.601,3.782-4.282,3.799-10.285-1.015
			c-9.073-7.275-27.021-22.073-36.117-29.319c-3.093-2.464-8.741-3.301-12.074-1.174c-4.911,3.135-16.601,12.289-21.366,16.683
			c-2.557,2.357-0.693,4.572-0.693,4.572l64.076,97.496c0,0,1.811,3.129,4.686,3.129c14.914,0,59.657,0,59.657,0
			c5.533,0,10.014-2.423,12.293-6.648S464.029,343.744,460.99,339.119z"/>
	</g>
</g>
</svg>
