<?xml version="1.0" encoding="utf-8"?>
<!-- Generator: Adobe Illustrator 16.0.0, SVG Export Plug-In . SVG Version: 6.00 Build 0)  -->
<!DOCTYPE svg PUBLIC "-//W3C//DTD SVG 1.1//EN" "http://www.w3.org/Graphics/SVG/1.1/DTD/svg11.dtd">
<svg version="1.1" xmlns="http://www.w3.org/2000/svg" xmlns:xlink="http://www.w3.org/1999/xlink" x="0px" y="0px" width="512px"
	 height="512px" viewBox="0 0 512 512" enable-background="new 0 0 512 512" xml:space="preserve">
<g id="Capa_2">
</g>
<g id="Artwork">
</g>
<g id="Layer_3">
</g>
<g id="Layer_4">
</g>
<g id="Layer_5">
	<g>
		<path d="M407.525,359.931l-38.25-19.418c-9.655-4.902-20.957-15.625-25.114-23.828c-4.157-8.201-16.418-14.914-27.247-14.914
			H194.156c-10.828,0-23.719,7.109-28.646,15.797s-16.852,19.818-26.5,24.734l-34.545,17.602c-9.648,4.916-8.73,9.855,2.04,10.975
			l38.588,4.012c0,0,3.293,0.42,3.293,3.701c0,13.006,0,52.021,0,52.021c0,0.637,0.521,1.158,1.158,1.158h17.268
			c0.637,0,1.158-0.521,1.158-1.158v-31.658c0-0.637,0.521-1.158,1.158-1.158h39.31c0.637,0,1.158,0.521,1.158,1.158v31.658
			c0,0.637,0.521,1.158,1.158,1.158h25.594c0.637,0,1.158-0.521,1.158-1.158v-31.658c0-0.637,0.521-1.158,1.158-1.158h39.311
			c0.637,0,1.158,0.521,1.158,1.158v31.658c0,0.637,0.521,1.158,1.158,1.158h23.278c0.637,0,1.158-0.521,1.158-1.158v-31.658
			c0-0.637,0.521-1.158,1.158-1.158h39.31c0.637,0,1.158,0.521,1.158,1.158v31.658c0,0.637,0.521,1.158,1.158,1.158h14.945
			c0.637,0,1.158-0.521,1.158-1.158c0,0,0-39.74,0-52.986c0-2.316,2.304-2.502,2.304-2.502l39.581-4.203
			C416.27,369.778,417.18,364.831,407.525,359.931z"/>
		<path d="M356.679,241.3l-25.415-12.904c-6.416-3.256-13.924-10.381-16.687-15.83c-2.762-5.451-10.909-9.91-18.104-9.91h-81.565
			c-7.194,0-15.759,4.723-19.033,10.496c-3.273,5.771-11.197,13.168-17.607,16.434l-22.954,11.697
			c-6.411,3.266-5.8,6.547,1.355,7.291l25.64,2.666c0,0,2.188,0.279,2.188,2.459c0,8.641,0,34.564,0,34.564
			c0,0.424,0.347,0.77,0.77,0.77h11.474c0.423,0,0.77-0.346,0.77-0.77v-21.035c0-0.422,0.346-0.77,0.77-0.77h26.119
			c0.423,0,0.77,0.348,0.77,0.77v21.035c0,0.424,0.347,0.77,0.77,0.77h17.006c0.423,0,0.77-0.346,0.77-0.77v-21.035
			c0-0.422,0.346-0.77,0.769-0.77h26.12c0.423,0,0.77,0.348,0.77,0.77v21.035c0,0.424,0.346,0.77,0.77,0.77h15.467
			c0.423,0,0.77-0.346,0.77-0.77v-21.035c0-0.422,0.346-0.77,0.77-0.77h26.119c0.423,0,0.77,0.348,0.77,0.77v21.035
			c0,0.424,0.346,0.77,0.77,0.77h9.931c0.423,0,0.769-0.346,0.769-0.77c0,0,0-26.404,0-35.205c0-1.539,1.531-1.664,1.531-1.664
			l26.299-2.793C362.49,247.841,363.094,244.556,356.679,241.3z"/>
		<path d="M324.354,160.538l-17.255-8.76c-0.819-0.416-3.268-1.539-4.31-2.328c-10.86-8.236-39.459-37.621-39.459-37.621
			s-1.515-1.035-1.515-2.23c0-6.553,0-25.994,0-25.994c0-1.855-1.519-3.375-3.375-3.375h-4.879c-1.856,0-3.375,1.52-3.375,3.375
			c0,0,0,18.391,0,25.502c0,1.055-1.239,1.928-1.239,1.928s-28.831,30.092-39.911,38.395c-2.448,1.834-4.776,2.629-5.811,3.156
			l-15.583,7.941c-4.353,2.219-3.938,4.445,0.92,4.951l17.407,1.809c0,0,1.485,0.189,1.485,1.67c0,5.867,0,23.467,0,23.467
			c0,0.287,0.235,0.523,0.522,0.523h7.79c0.287,0,0.522-0.236,0.522-0.523v-14.279c0-0.289,0.235-0.523,0.522-0.523h17.733
			c0.287,0,0.522,0.234,0.522,0.523v14.279c0,0.287,0.235,0.523,0.522,0.523h11.546c0.287,0,0.522-0.236,0.522-0.523v-14.279
			c0-0.289,0.235-0.523,0.522-0.523h17.733c0.288,0,0.522,0.234,0.522,0.523v14.279c0,0.287,0.235,0.523,0.522,0.523h10.501
			c0.288,0,0.522-0.236,0.522-0.523v-14.279c0-0.289,0.235-0.523,0.522-0.523h17.733c0.287,0,0.522,0.234,0.522,0.523v14.279
			c0,0.287,0.235,0.523,0.522,0.523h6.742c0.288,0,0.522-0.236,0.522-0.523c0,0,0-17.926,0-23.902c0-1.045,1.04-1.129,1.04-1.129
			l17.855-1.895C328.299,164.981,328.71,162.749,324.354,160.538z"/>
	</g>
</g>
</svg>
