<?xml version="1.0" encoding="utf-8"?>
<!-- Generator: Adobe Illustrator 16.0.0, SVG Export Plug-In . SVG Version: 6.00 Build 0)  -->
<!DOCTYPE svg PUBLIC "-//W3C//DTD SVG 1.1//EN" "http://www.w3.org/Graphics/SVG/1.1/DTD/svg11.dtd">
<svg version="1.1" xmlns="http://www.w3.org/2000/svg" xmlns:xlink="http://www.w3.org/1999/xlink" x="0px" y="0px" width="512px"
	 height="512px" viewBox="0 0 512 512" enable-background="new 0 0 512 512" xml:space="preserve">
<g id="Capa_2">
</g>
<g id="Artwork">
</g>
<g id="Layer_3">
</g>
<g id="Layer_4">
</g>
<g id="Layer_5">
	<g>
		<path d="M379.065,200.037c0.111-0.932,0.17-1.869,0.17-2.813c0-29.445-55.175-53.314-123.235-53.314
			c-68.062,0-123.235,23.869-123.235,53.314v120.373h0.171C136.324,345.73,190.125,368.09,256,368.09
			c65.874,0,119.675-22.36,123.063-50.494h0.002v-0.007c0.111-0.932,0.17-1.869,0.17-2.813s-0.059-1.881-0.17-2.813V200.037z
			 M359.327,209.847c-1.365,2.621,0.115,7.682-2.341,10.106c-2.108,2.082-7.312,0.767-10.146,2.673
			c-2.494,1.677-3.086,6.986-6.09,8.506c-2.715,1.373-7.394-1.242-10.486-0.013c-2.854,1.134-4.413,6.253-7.56,7.253
			c-2.947,0.937-7.198-2.325-10.378-1.515c-3.012,0.766-5.168,5.668-8.369,6.313c-3.059,0.615-6.952-3.063-10.167-2.565
			c-3.094,0.479-5.688,5.165-8.91,5.527c-3.12,0.351-6.693-3.639-9.919-3.403c-3.14,0.23-6.092,4.701-9.319,4.816
			c-3.151,0.114-6.419-4.131-9.643-4.131c-3.223,0-6.489,4.245-9.64,4.131c-3.226-0.116-6.177-4.586-9.315-4.816
			c-3.226-0.236-6.799,3.753-9.918,3.403c-3.224-0.362-5.816-5.049-8.911-5.527c-3.214-0.497-7.109,3.181-10.168,2.565
			c-3.201-0.645-5.358-5.546-8.37-6.313c-3.18-0.809-7.431,2.452-10.377,1.516c-3.146-1-4.708-6.12-7.561-7.254
			c-3.095-1.229-7.774,1.385-10.49,0.012c-3.006-1.521-3.598-6.831-6.093-8.508c-2.836-1.907-8.037-0.592-10.146-2.674
			c-2.456-2.426-0.975-7.485-2.34-10.106c-1.54-2.958-6.41-5.031-6.41-8.176c0-3.146,4.87-5.22,6.411-8.178
			c1.365-2.621-0.115-7.681,2.341-10.106c2.108-2.082,7.312-0.766,10.146-2.673c2.494-1.677,3.084-6.986,6.09-8.506
			c2.714-1.373,7.392,1.242,10.485,0.013c2.853-1.134,4.413-6.254,7.56-7.254c2.946-0.936,7.197,2.325,10.377,1.516
			c3.012-0.767,5.169-5.669,8.37-6.313c3.059-0.616,6.953,3.062,10.167,2.565c3.095-0.479,5.688-5.165,8.911-5.527
			c3.119-0.351,6.692,3.639,9.918,3.402c3.14-0.229,6.092-4.7,9.318-4.816c3.152-0.113,6.42,4.131,9.644,4.131
			c3.223,0,6.489-4.245,9.641-4.131c3.226,0.116,6.176,4.586,9.314,4.816c3.226,0.236,6.8-3.753,9.919-3.403
			c3.223,0.362,5.816,5.049,8.91,5.527c3.215,0.497,7.109-3.181,10.169-2.565c3.201,0.644,5.356,5.546,8.368,6.313
			c3.18,0.81,7.431-2.452,10.378-1.516c3.146,1,4.708,6.12,7.562,7.254c3.094,1.229,7.773-1.385,10.488-0.011
			c3.006,1.52,3.598,6.83,6.092,8.507c2.836,1.906,8.039,0.591,10.147,2.673c2.456,2.426,0.975,7.485,2.34,10.106
			c1.54,2.958,6.411,5.031,6.411,8.176C365.739,204.815,360.868,206.889,359.327,209.847z"/>
		<path d="M250.704,178c2.913-4.156,7.679-4.156,10.592,0l1.172,1.673c2.913,4.156,9.438,7.273,14.502,6.927l10.576-0.724
			c5.064-0.346,6.058,2.077,2.209,5.385l-3.229,2.774c-3.848,3.309-3.848,8.722,0.001,12.03l3.227,2.773
			c3.85,3.308,2.856,5.731-2.208,5.385l-10.576-0.724c-5.063-0.346-11.589,2.771-14.502,6.928l-1.172,1.673
			c-2.913,4.156-7.679,4.156-10.592,0l-1.172-1.673c-2.913-4.157-9.438-7.274-14.502-6.928l-10.576,0.724
			c-5.064,0.347-6.058-2.077-2.208-5.385l3.227-2.773c3.849-3.308,3.849-8.721,0-12.03l-3.228-2.774
			c-3.849-3.308-2.855-5.731,2.209-5.385l10.576,0.724c5.063,0.347,11.589-2.771,14.502-6.927L250.704,178z"/>
	</g>
</g>
</svg>
