<?xml version="1.0" encoding="utf-8"?>
<!-- Generator: Adobe Illustrator 16.0.0, SVG Export Plug-In . SVG Version: 6.00 Build 0)  -->
<!DOCTYPE svg PUBLIC "-//W3C//DTD SVG 1.1//EN" "http://www.w3.org/Graphics/SVG/1.1/DTD/svg11.dtd">
<svg version="1.1" xmlns="http://www.w3.org/2000/svg" xmlns:xlink="http://www.w3.org/1999/xlink" x="0px" y="0px" width="512px"
	 height="512px" viewBox="0 0 512 512" enable-background="new 0 0 512 512" xml:space="preserve">
<g id="Capa_2">
</g>
<g id="Artwork">
</g>
<g id="Layer_3">
</g>
<g id="Layer_4">
</g>
<g id="Layer_5">
	<g>
		<path d="M63.795,355.312c-0.081,3.863,3.016,7.063,6.879,7.105l373.134,4.369c3.862,0.045,7.07-2.129,7.127-4.832
			c0.057-2.704-3.059-5.01-6.921-5.125L71.022,345.687c-3.863-0.116-7.09,2.949-7.169,6.813L63.795,355.312z"/>
		<g>
			<path d="M360.647,375.181c3.863,0.045,10.021,1.094,13.683,2.331l50.025,16.884c3.66,1.235,5.969,4.348,5.127,6.919
				c-0.841,2.569-4.544,3.715-8.227,2.546l-84.795-26.915c-3.683-1.169-3.534-2.089,0.328-2.043L360.647,375.181z"/>
			<path d="M263.218,340.009c3.661,1.236,3.496,2.152-0.367,2.037l-33.097-0.99c-3.863-0.115-10.036-1.166-13.72-2.335
				L65.584,290.966c-3.683-1.169-5.713-5.13-4.51-8.803l0.875-2.674c1.203-3.672,5.182-5.664,8.843-4.429L263.218,340.009z"/>
		</g>
		<path d="M243.895,156.061c4.329,2.443,4.44,6.63,0.248,9.301l-29.27,18.65c-4.193,2.671-11.053,2.671-15.246,0l-29.269-18.65
			c-4.193-2.671-4.081-6.857,0.248-9.301l28.773-16.248c4.329-2.444,11.412-2.444,15.741,0L243.895,156.061z"/>
		<path d="M449.93,210.48c-1.121-3.861-4.091-7.34-8.506-9.833l-60.245-34.017c-4.981-2.813-11.542-4.362-18.473-4.362
			s-13.491,1.549-18.473,4.362l-60.165,33.972c-6.679,2.577-11.452,9.075-11.452,16.634v65.251
			c0,11.037,11.237,17.753,12.847,18.778l61.283,39.051c8.777,5.592,23.143,5.592,31.92,0l61.282-39.051
			c2.552-1.626,4.335-3.52,5.369-5.513c3.648-3.269,5.955-8.01,5.955-13.266v-65.251C451.272,214.848,450.794,212.565,449.93,210.48
			z M348.221,173.693c3.73-2.106,9.011-3.315,14.485-3.315s10.755,1.209,14.484,3.315l60.245,34.018
			c3.051,1.722,4.832,3.957,4.891,6.133c0.058,2.179-1.604,4.506-4.556,6.389l-61.284,39.049c-3.55,2.264-8.572,3.562-13.78,3.562
			c-5.207,0-10.23-1.298-13.78-3.56l-61.284-39.049c-2.954-1.884-4.614-4.212-4.556-6.391c0.058-2.176,1.84-4.411,4.89-6.133
			L348.221,173.693z"/>
		<path d="M399.352,210.646c4.328,2.444,4.438,6.631,0.247,9.302l-29.27,18.65c-4.192,2.671-11.054,2.671-15.245,0l-29.271-18.65
			c-4.192-2.671-4.081-6.857,0.248-9.302l28.774-16.247c4.329-2.444,11.411-2.444,15.741,0L399.352,210.646z"/>
		<path d="M257.854,212.231c0-9.9,6.119-18.971,15.281-22.742l20.903-11.803c0,0,1.779-0.563,1.779-3c0-3.009,0-12.036,0-12.036
			c0-2.389-0.479-4.671-1.341-6.757c-1.123-3.861-4.092-7.34-8.507-9.833l-60.245-34.017c-4.982-2.813-11.543-4.362-18.473-4.362
			c-6.931,0-13.491,1.55-18.473,4.362l-60.163,33.973c-6.68,2.577-11.453,9.073-11.453,16.634v65.251
			c0,10.785,11.237,17.751,12.846,18.778l61.284,39.049c8.777,5.594,23.141,5.594,31.919,0.001l33.34-21.245
			c0,0,1.304-0.715,1.304-3.049C257.854,249.135,257.854,212.231,257.854,212.231z M207.25,208.256
			c-5.208,0-10.231-1.298-13.78-3.56l-61.284-39.049c-2.954-1.883-4.615-4.211-4.556-6.39c0.058-2.177,1.84-4.413,4.891-6.134
			l60.245-34.018c3.73-2.106,9.01-3.314,14.485-3.314s10.754,1.208,14.484,3.314l60.245,34.018c3.051,1.721,4.833,3.957,4.891,6.134
			c0.059,2.179-1.603,4.505-4.557,6.389l-61.283,39.049C217.481,206.958,212.458,208.256,207.25,208.256z"/>
	</g>
</g>
</svg>
