<?xml version="1.0" encoding="utf-8"?>
<!-- Generator: Adobe Illustrator 16.0.0, SVG Export Plug-In . SVG Version: 6.00 Build 0)  -->
<!DOCTYPE svg PUBLIC "-//W3C//DTD SVG 1.1//EN" "http://www.w3.org/Graphics/SVG/1.1/DTD/svg11.dtd">
<svg version="1.1" xmlns="http://www.w3.org/2000/svg" xmlns:xlink="http://www.w3.org/1999/xlink" x="0px" y="0px" width="512px"
	 height="512px" viewBox="0 0 512 512" enable-background="new 0 0 512 512" xml:space="preserve">
<g id="Capa_2">
</g>
<g id="Artwork">
</g>
<g id="Layer_3">
</g>
<g id="Layer_4">
</g>
<g id="Layer_5">
	<g>
		<path d="M360.128,415.253L122.952,169.458c-4.121-4.14-9.647-6.515-15.163-6.515c-4.152,0-7.828,1.383-10.35,3.895
			c-2.936,2.92-4.338,7.412-3.847,12.324c0.488,4.889,2.744,9.577,6.372,13.222l242.898,238.845c1.794,1.803,4.09,2.755,6.64,2.755
			c5.008,0,10.335-3.732,12.391-8.681C363.437,421.591,362.782,417.917,360.128,415.253z"/>
		<path d="M260.012,295.851c4.311,5.093,15.516,16.123,15.516,16.123c1.237,1.127,1.869,0.708,2.291,0.553
			c4.401-1.62,9.038-3.076,13.894-4.349c0.333-0.087,0.865-0.587,0.521-1.495L207.58,89.38l-0.129-0.332l-0.21-0.287
			c-7.913-18.379-39.913-13.879-26.39,18.908l77.3,185.146C258.15,292.815,258.795,294.414,260.012,295.851z"/>
		<g>
			<path d="M303.952,409.702c-10.197,0-40.788,0-40.788,0c-12.564,0-23.339-7.469-27.97-18.115
				c-0.112-0.258-0.242-0.673,0.565-0.896c8.466-1.062,22.942-4.312,40.49-7.032c0.785-0.122,1.983-0.683,0.75-1.95l-39.41-38.753
				c-1.096-0.906-2.25-0.448-2.778-0.099c-16.715,11.041-20.839,25.406-20.839,35.709c0,5.861,1.839,9.488,5.45,11.123
				c0.842,0.381,1.301,1.354,1.342,1.757c1.762,17.433,16.475,31.047,34.375,31.047c0,0,45.266,0,60.354,0
				c3.292,0,1.782-1.18,1.782-1.18l-10.529-10.352C306.747,410.96,305.764,409.702,303.952,409.702z"/>
			<path d="M310.274,326.445c-6.363,0-12.31,0.202-17.88,0.578c-0.723,0.048-1.88,0.484-0.78,1.573l49.69,51.495
				c1.585,1.541,2.714,1.67,3.34,1.751c22.101,2.854,42.692,7.847,53.453,9.024c0.688,0.141,0.627,0.454,0.55,0.635
				c-4.603,10.693-15.242,18.2-27.841,18.199c0,0-1.146,0.037-0.249,1.303c2.145,3.028,3.057,6.688,3.015,10.411
				c-0.004,0.36-0.026,1.078,1.005,1.078h2.76c18.114,0,32.965-13.94,34.431-31.675c0.016-0.194,0.215-0.653,0.599-0.805
				c4.014-1.586,6.136-5.214,6.137-11.446C418.504,354.901,382.114,326.445,310.274,326.445z"/>
		</g>
	</g>
</g>
</svg>
