<?xml version="1.0" encoding="utf-8"?>
<!-- Generator: Adobe Illustrator 16.0.0, SVG Export Plug-In . SVG Version: 6.00 Build 0)  -->
<!DOCTYPE svg PUBLIC "-//W3C//DTD SVG 1.1//EN" "http://www.w3.org/Graphics/SVG/1.1/DTD/svg11.dtd">
<svg version="1.1" xmlns="http://www.w3.org/2000/svg" xmlns:xlink="http://www.w3.org/1999/xlink" x="0px" y="0px" width="512px"
	 height="512px" viewBox="0 0 512 512" enable-background="new 0 0 512 512" xml:space="preserve">
<g id="Capa_2">
</g>
<g id="Artwork">
</g>
<g id="Layer_3">
</g>
<g id="Layer_4">
</g>
<g id="Layer_5">
	<g>
		<g>
			<path d="M350.558,307.043l-49.706,49.705c-0.658,0.658-0.658,1.738,0,2.398l14.826,14.824c0.658,0.658,1.738,0.658,2.396,0
				l7.602-7.602c0.657-0.656,1.735-0.656,2.394,0.002l40.511,40.508c20.322,20.324,21.556,19.092,36.378,4.27
				s16.057-16.055-4.268-36.379l-40.509-40.51c-0.659-0.658-0.661-1.734-0.003-2.393l7.6-7.602c0.661-0.66,0.658-1.736,0-2.395
				l-14.825-14.828C352.294,306.385,351.217,306.385,350.558,307.043z M388.442,380.4l-14.24,14.242c-1.841,1.84-4.826,1.84-6.666,0
				c-1.84-1.842-1.84-4.826,0-6.668l14.241-14.24c1.841-1.84,4.826-1.842,6.666,0C390.284,375.574,390.284,378.559,388.442,380.4z
				 M367.951,359.908L353.71,374.15c-1.84,1.84-4.824,1.84-6.665,0c-1.84-1.84-1.841-4.826-0.001-6.666l14.242-14.24
				c1.84-1.842,4.825-1.842,6.665-0.002C369.793,355.084,369.793,358.068,367.951,359.908z"/>
			<g>
				<path d="M295.52,279.379c-10.196,8.844-19.131,16.227-28.598,23.863c-0.467,0.377-1.216,1.322-0.273,2.021
					c16.28,12.842,28.108,21.561,33.94,25.826c2.173,1.592,3.363,2.432,4.822,0.975c4.895-4.896,14.317-14.318,19.579-19.58
					c1.462-1.461,1.084-2.674-0.317-4.188c-4.26-4.602-14.407-15.563-26.838-28.984C297.505,278.955,296.831,278.252,295.52,279.379
					z"/>
				<path d="M215.545,260.482c10.861-11.723,20.655-22.287,31.522-33.998c0.535-0.711,0.053-1.865-0.364-2.314
					c-8.375-9.016-15.716-16.908-20.923-22.48c-25.314-27.105-90.551-109.436-90.551-109.436s-4.549-6.025-6.226,0.736
					c-2.779,11.213-7.844,37.059,4.221,72.381c9.189,26.9,43.862,63.051,79.581,94.941
					C213.334,260.785,214.519,261.357,215.545,260.482z"/>
			</g>
		</g>
		<g>
			<path d="M382.995,92.99c-1.676-6.762-6.225-0.736-6.225-0.736s-65.237,82.33-90.552,109.436
				c-22.775,24.381-86.349,93.055-98.892,106.607c-1.401,1.514-1.778,2.727-0.317,4.188c5.262,5.262,14.685,14.684,19.579,19.58
				c1.458,1.457,2.65,0.617,4.823-0.975c22.286-16.305,148.5-110.502,167.363-165.719
				C390.839,130.049,385.774,104.203,382.995,92.99z"/>
			<path d="M159.046,307.043l-14.826,14.828c-0.658,0.658-0.659,1.734,0,2.395l7.601,7.602c0.659,0.658,0.656,1.734-0.002,2.393
				l-40.509,40.51c-20.324,20.324-19.09,21.557-4.268,36.379c14.822,14.822,16.054,16.055,36.378-4.27l40.509-40.508
				c0.659-0.658,1.737-0.658,2.395-0.002l7.602,7.602c0.657,0.658,1.737,0.658,2.396,0l14.826-14.824c0.659-0.66,0.658-1.74,0-2.398
				l-49.706-49.705C160.784,306.385,159.705,306.385,159.046,307.043z M123.556,373.734c1.841-1.842,4.826-1.84,6.667,0
				l14.241,14.24c1.84,1.842,1.84,4.826,0,6.668c-1.841,1.84-4.826,1.84-6.666,0L123.557,380.4
				C121.716,378.559,121.715,375.574,123.556,373.734z M144.048,353.242c1.84-1.84,4.826-1.84,6.667,0.002l14.241,14.24
				c1.841,1.84,1.84,4.826,0,6.666s-4.825,1.84-6.666,0l-14.241-14.242C142.208,358.068,142.207,355.084,144.048,353.242z"/>
		</g>
	</g>
</g>
</svg>
