<?xml version="1.0" encoding="utf-8"?>
<!-- Generator: Adobe Illustrator 16.0.0, SVG Export Plug-In . SVG Version: 6.00 Build 0)  -->
<!DOCTYPE svg PUBLIC "-//W3C//DTD SVG 1.1//EN" "http://www.w3.org/Graphics/SVG/1.1/DTD/svg11.dtd">
<svg version="1.1" xmlns="http://www.w3.org/2000/svg" xmlns:xlink="http://www.w3.org/1999/xlink" x="0px" y="0px" width="512px"
	 height="512px" viewBox="0 0 512 512" enable-background="new 0 0 512 512" xml:space="preserve">
<g id="Capa_2">
</g>
<g id="Artwork">
</g>
<g id="Layer_3">
</g>
<g id="Layer_4">
</g>
<g id="Layer_5">
	<g>
		<g>
			<g>
				<path d="M142.773,353.949c0,2.75-2.25,5-5,5H91.204c-2.75,0-5-2.25-5-5v-34.083c0-2.75,2.25-5,5-5h46.569c2.75,0,5,2.25,5,5
					V353.949z"/>
			</g>
			<g>
				<path d="M425.795,353.949c0,2.75-2.25,5-5,5h-46.569c-2.75,0-5-2.25-5-5v-34.083c0-2.75,2.25-5,5-5h46.569c2.75,0,5,2.25,5,5
					V353.949z"/>
			</g>
		</g>
		<path d="M412.022,213.825c0,1.65-1.35,3-3,3H267.323c-1.65,0-3-1.35-3-3v-9.004c0-1.65,1.35-3,3-3h141.699c1.65,0,3,1.35,3,3
			V213.825z"/>
		<path d="M448.57,291.123c0,4.4-3.6,8-8,8H71.43c-4.4,0-8-3.6-8-8v-51.174c0-4.4,3.6-8,8-8H440.57c4.4,0,8,3.6,8,8V291.123z"/>
		<path d="M154.575,183.998c0,11.161,3.972,21.406,10.568,29.413c0.091,0.111,0.176,0.421-0.109,0.599
			c-1.431,0.891-2.671,1.736-4.074,2.505c-0.268,0.147-0.817,0.435-1.525,0.435h-42.188c-0.875,0-1.614-0.409-1.993-0.621
			c-14.433-8.08-24.195-23.508-24.195-41.225v-18.848c0,0,0-2.204,2.117-2.204c23,0,91.383,0,91.383,0s0.949,0,0.949,0.641
			c0,1.031,0,2.656,0,3.688c0,0.75-1.199,0.72-1.199,0.72s-21.469,0-28.625,0c-1.188,0-1.11,1.196-1.11,1.196V183.998z"/>
		<path d="M213.983,213.512h-32.215c-0.756,0-1.597-0.487-1.988-0.743c-9.046-5.919-15.025-16.136-15.025-27.754v-14.335
			c0,0-0.048-1.143,1.068-1.143c14.819,0,56.575,0,64.069,0c1.334,0,1.16,0.415,1.16,1.323c0,3.539,0,14.155,0,14.155
			c0,11.505-5.863,21.636-14.762,27.58C215.813,212.912,214.902,213.512,213.983,213.512z"/>
	</g>
</g>
</svg>
