<?xml version="1.0" encoding="utf-8"?>
<!-- Generator: Adobe Illustrator 16.0.0, SVG Export Plug-In . SVG Version: 6.00 Build 0)  -->
<!DOCTYPE svg PUBLIC "-//W3C//DTD SVG 1.1//EN" "http://www.w3.org/Graphics/SVG/1.1/DTD/svg11.dtd">
<svg version="1.1" xmlns="http://www.w3.org/2000/svg" xmlns:xlink="http://www.w3.org/1999/xlink" x="0px" y="0px" width="512px"
	 height="512px" viewBox="0 0 512 512" enable-background="new 0 0 512 512" xml:space="preserve">
<g id="Capa_2">
</g>
<g id="Artwork">
</g>
<g id="Layer_3">
</g>
<g id="Layer_4">
</g>
<g id="Layer_5">
	<g>
		<path d="M317.676,119.874c-19.561-8.861-40.281-13.354-61.59-13.354c-58.578,0-112.045,34.466-136.213,87.806
			c-34.006,75.061-0.607,163.794,74.453,197.802c19.559,8.861,40.281,13.354,61.59,13.354c58.578,0,112.043-34.466,136.211-87.807
			C426.133,242.614,392.734,153.88,317.676,119.874z M241.654,162.096c12.703,0,23.002,10.297,23.002,23
			c0,12.702-10.299,23-23.002,23c-12.701,0-22.998-10.298-22.998-23C218.656,172.393,228.953,162.096,241.654,162.096z
			 M313.15,351.214c-8.193,25.22-38.348,47.979-85.199,38.351v0.003c-9.65-2.036-19.096-5.131-28.26-9.283
			c-68.531-31.049-99.025-112.063-67.977-180.595c14.404-31.789,40.211-56.217,71.27-69.356c1.777-0.751,4.301-0.423,1.301,1.952
			c-12.867,9.83-17.449,18.747-20.559,33.127c-6.186,28.607,8.848,68.982,69.59,96.504
			C310.477,287.813,321.271,326.206,313.15,351.214z"/>
		<g>
			<circle cx="269.928" cy="334.938" r="23"/>
		</g>
	</g>
</g>
</svg>
