<?xml version="1.0" encoding="utf-8"?>
<!-- Generator: Adobe Illustrator 16.0.0, SVG Export Plug-In . SVG Version: 6.00 Build 0)  -->
<!DOCTYPE svg PUBLIC "-//W3C//DTD SVG 1.1//EN" "http://www.w3.org/Graphics/SVG/1.1/DTD/svg11.dtd">
<svg version="1.1" xmlns="http://www.w3.org/2000/svg" xmlns:xlink="http://www.w3.org/1999/xlink" x="0px" y="0px" width="512px"
	 height="512px" viewBox="0 0 512 512" enable-background="new 0 0 512 512" xml:space="preserve">
<g id="Capa_2">
</g>
<g id="Artwork">
</g>
<g id="Layer_3">
</g>
<g id="Layer_4">
</g>
<g id="Layer_5">
	<g>
		<path d="M322.652,399.658c-1.92,4.512-7.502,8.203-12.405,8.203H201.753c-4.903,0-10.486-3.691-12.405-8.203l-16.726-39.308
			c-1.919-4.512,0.521-8.203,5.425-8.203h155.905c4.903,0,7.345,3.691,5.425,8.203L322.652,399.658z"/>
		<g>
			<path d="M372.138,265.535c-2.326-3.153-6.779-4.584-7.893-6.069c-1.154-1.542,0.393-5.633-1.708-10.715
				c-2.163-5.233-9.073-9.421-15.937-10.438c-2.301-0.341-3.787,0.757-4.668,0.21c-2.56-1.589-3.469-6.646-11.183-7.877
				c-4.607-0.735-9.454-1.004-13.144-0.371c-11.184,1.921-21.186,9.014-23.783,16.868c-3.931,11.894,7.289,18.827,12.08,21.789
				c0.566,0.35,1.127,0.695,1.658,1.037c2.214,1.516,4.431,2.344,6.271,2.85c0.474,0.13,1.21,0.244,0.875,0.661
				c-5.722,9.746-13.947,20.369-25.482,26.095c-5.7,2.83-10.868,6.221-15.326,9.592c-6.556-24.059-4.649-41.977-3.455-55.708
				c0.41-4.712,0.511-8.926,0.306-14.226c0.043-0.921,0.619-1.042,0.943-1.115c4.035-0.898,7.925-2.713,11.619-5.451
				c4.351-2.891,7.174-6.487,9.453-9.39c2.4-3.058,3.774-4.723,5.934-5.676c3.428-1.315,6.892-1.954,10.584-1.954
				c3.509,0,7.274,0.606,11.194,1.802l0.199,0.061l0.203,0.053c4.368,1.136,10.973,2.489,17.625,2.489
				c9.988,0,17.55-2.95,22.475-8.769c4.786-5.656,6.431-13.267,4.886-22.625c-1.06-7.226-4.864-12.164-7.925-16.137
				c-1.511-1.96-3.938-4.959-2.451-6.245c2.512-2.172,6.406-5.311,8.532-10.922c2.692-6.689,1.785-13.939-2.563-20.437
				c-5.39-8.053-16.832-13.396-24.949-13.874c-15.874-0.934-30.262,12.285-30.27,12.286c-2.512,0.09-4.845-5.682-6.897-8.496
				c-6.495-8.9-14.577-19.977-27.756-20.646c-0.66-0.033-1.327-0.049-1.997-0.049c-19.578,0-41.078,13.962-50.01,32.476
				c-1.561,3.232-4.092,7.027-5.723,7.927c-1.295,0.714-6.858,0.184-9.626-0.559c-2.138-0.574-4.787-1.285-8.022-1.827
				c-3.363-0.696-6.725-1.048-9.995-1.048c-12.9,0-24.793,5.462-34.39,15.794c-10.772,11.595-13.448,28.38-14.085,37.354
				c-0.387,5.464-1.003,24.038,7.344,33.635c10.814,12.433,26.382,19.563,42.712,19.564c0.001,0,0.002,0,0.002,0
				c5.894,0,11.783-0.938,17.505-2.786c5.761-1.698,10.719-4.591,15.516-7.39c5.446-3.179,10.591-6.181,15.256-6.181
				c0.319,0,0.629,0.013,0.946,0.039l0.182,0.014c3.441,0.224,7.122,1.699,11.02,3.26c0.418,0.167,0.843,0.337,1.271,0.507
				c0.209,0.083,0.594,0.396,0.551,1.134c-0.283,3.139-0.519,5.728-0.866,9.524c-1.862,20.316-10.228,60.58-16.976,75.891
				c-4.632,10.511-16.385,11.984-18.634,18.149c-0.196,0.537-0.286,1.556,1.131,1.489c0,0,62.266,0.067,62.667,0.067
				c0.742,0,1.453-0.296,1.883-0.452c5.145-1.873,9.847-7.953,18.029-21.475c5.499-9.088,14.377-21.593,22.668-33.93
				c0.642-0.877,1.021-0.443,1.292-0.29c1.236,0.697,2.719,1.272,4.525,1.651c0.617,0.163,1.181,0.298,1.717,0.427
				c0.699,0.167,1.671,0.096,2.449,0.769c4.486,3.877,5.938,11.102,12.968,12.223c0,0,0,0,0.001,0
				c2.896,0.462,8.543,0.418,13.918-5.037c2.043-2.021,2.999-3.551,3.875-5.07c0.465-0.806,2.168-1.083,3.373-1.546
				c4.545-1.682,8.028-5.769,9.57-11.243C374.307,274.799,375.649,270.143,372.138,265.535z"/>
		</g>
	</g>
</g>
</svg>
