<?xml version="1.0" encoding="utf-8"?>
<!-- Generator: Adobe Illustrator 16.0.0, SVG Export Plug-In . SVG Version: 6.00 Build 0)  -->
<!DOCTYPE svg PUBLIC "-//W3C//DTD SVG 1.1//EN" "http://www.w3.org/Graphics/SVG/1.1/DTD/svg11.dtd">
<svg version="1.1" xmlns="http://www.w3.org/2000/svg" xmlns:xlink="http://www.w3.org/1999/xlink" x="0px" y="0px" width="512px"
	 height="512px" viewBox="0 0 512 512" enable-background="new 0 0 512 512" xml:space="preserve">
<g id="Capa_2">
</g>
<g id="Artwork">
</g>
<g id="Layer_3">
</g>
<g id="Layer_4">
</g>
<g id="Layer_5">
	<g>
		<g>
			<path d="M267.569,118.951c-18.99-22.972-55.07-21.327-86.463,3.721c-0.833,0.583-1.662-0.121-1.94-0.385
				c-10.774-10.224-41.947,8.653-48.333,19.717c-1.648,2.855-0.677,4.695,12.529,4.115c4.969-0.219,8.814,1.012,11.679,2.633
				c0.243,0.138,0.606,0.503,0.274,1.042c-10.684,15.256-18.88,33.561-23.833,56.038c-5.862,26.6,2.421,68.179,4.599,89.251
				c0.028,1.629,1.305,0.878,1.901,0.671c2.62-0.913,5.375-1.337,8.008-1.424c2.281-0.075,7.041,1.088,9.396,2.199
				c0.443,0.209,1.286,0.518,1.631-0.886c4.271-21.547,18.186-61.466,37.247-76.014c6.151-4.694,12.973-5.652,19.148-8.592
				c0.86-0.407,1.062,0.194,1.198,0.483c1.33,2.824,2.232,6.468,1.882,11.02c-1.014,13.181,0.793,14.211,3.701,12.658
				c8.998-4.807,23.494-25.249,23.948-38.946c0.02-0.584-0.036-1.498,0.813-2.238C286.117,168.231,289.432,145.398,267.569,118.951z
				"/>
			<path d="M192.287,364.511c2.12,3.339,0.816,4.954-2.896,3.589l-42.868-14.595c-2.013-0.74-1.296-31.212-4-31.333
				c-2.281-0.102-4.384,29.482-6.149,29.887l-43.518,8.901c-3.855,0.883-4.858-0.813-2.228-3.767l43.671-49.053
				c2.63-2.954,6.26-5.33,11.955-4.85c5.42,0.456,9.261,3.279,11.38,6.619L192.287,364.511z"/>
		</g>
		<g>
			<path d="M244.431,393.049c18.99,22.972,55.07,21.327,86.463-3.721c0.833-0.583,1.662,0.121,1.94,0.385
				c10.774,10.224,41.947-8.653,48.333-19.717c1.648-2.855,0.677-4.695-12.529-4.115c-4.969,0.219-8.814-1.012-11.679-2.633
				c-0.243-0.138-0.606-0.503-0.274-1.042c10.684-15.256,18.88-33.561,23.833-56.038c5.862-26.6-2.421-68.179-4.599-89.251
				c-0.028-1.629-1.305-0.878-1.901-0.671c-2.62,0.913-5.375,1.337-8.008,1.424c-2.281,0.075-7.041-1.088-9.396-2.199
				c-0.443-0.209-1.286-0.518-1.631,0.886c-4.271,21.547-18.186,61.466-37.247,76.014c-6.151,4.694-12.973,5.652-19.148,8.592
				c-0.86,0.407-1.062-0.194-1.198-0.483c-1.33-2.824-2.232-6.468-1.882-11.02c1.014-13.181-0.793-14.211-3.701-12.658
				c-8.998,4.807-23.494,25.249-23.948,38.946c-0.02,0.584,0.036,1.498-0.813,2.238
				C225.883,343.769,222.567,366.602,244.431,393.049z"/>
			<path d="M319.713,147.489c-2.12-3.339-0.816-4.954,2.896-3.589l42.868,14.595c2.013,0.74,1.296,31.212,4,31.333
				c2.281,0.102,4.384-29.482,6.149-29.887l43.518-8.901c3.855-0.883,4.858,0.813,2.228,3.767l-43.671,49.053
				c-2.63,2.954-6.26,5.33-11.955,4.85c-5.42-0.456-9.261-3.279-11.38-6.619L319.713,147.489z"/>
		</g>
	</g>
</g>
</svg>
