<?xml version="1.0" encoding="utf-8"?>
<!-- Generator: Adobe Illustrator 16.0.0, SVG Export Plug-In . SVG Version: 6.00 Build 0)  -->
<!DOCTYPE svg PUBLIC "-//W3C//DTD SVG 1.1//EN" "http://www.w3.org/Graphics/SVG/1.1/DTD/svg11.dtd">
<svg version="1.1" xmlns="http://www.w3.org/2000/svg" xmlns:xlink="http://www.w3.org/1999/xlink" x="0px" y="0px" width="512px"
	 height="512px" viewBox="0 0 512 512" enable-background="new 0 0 512 512" xml:space="preserve">
<g id="Capa_2">
</g>
<g id="Artwork">
</g>
<g id="Layer_3">
</g>
<g id="Layer_4">
</g>
<g id="Layer_5">
	<g>
		<path d="M276.065,393.773c-0.942,8.787-11.607,16-17.881,16c-6.562,0-16.978-7.209-17.88-16
			c-1.848-17.998,12.652-5.332,17.88-5.332C262.89,388.441,277.947,376.207,276.065,393.773z"/>
		<path d="M256.039,168.135c-79.551,0-147.417,72.309-132.168,151.459c7.261,37.689,16.751,90.18,64.957,108
			c12.783,4.727,28.476,5.879,42.793,5.824c4.511-0.016,3.669-1.717-0.823-2.867c-43.875-11.254-76.402-51.115-76.402-98.449
			c0,0,0-22.994,0-30.658c0-3.666,2.024-4.955,5.227-4.955c5.425,0,14.232,0,22.309,0c10.309,0,11.019-47.451,16.779-47.451
			c7.548,0,11.12,47.156,23.186,47.156c41.873,0,112.676,0.219,131.227,0.279c2.933,0.01,4.56,1.137,4.56,5.137
			c0,7.623,0,30.492,0,30.492c0,47.645-32.96,87.713-77.273,98.658c-3.855,0.951-4.751,2.307-0.615,2.221
			c16.239-0.336,37.361-2.283,47.355-6.854c53.973-24.684,54.004-68.865,61.058-106.533
			C403.122,239.943,335.59,168.135,256.039,168.135z"/>
		<path d="M256.039,154.99c21.34,0,42.803,4.867,62.655,13.74c2.033,0.91,4.928,2.695,7.689-0.596
			c3.476-6.611,3.763-10.387,3.763-17.959c0-31.527-33.179-57.086-74.108-57.086c-40.928,0-74.107,25.559-74.107,57.086
			c0,7.514,0.665,12.129,4.088,18.699c2.853,3.217,5.221,0.619,7.24-0.285C212.987,159.762,234.39,154.99,256.039,154.99z"/>
		<path d="M200.663,99.578c2.313-1.488,2.319-3.932,0.014-5.434L178.454,79.68c-2.305-1.5-5.418-0.842-6.918,1.463l-1.637,2.514
			c-1.5,2.305-0.842,5.418,1.463,6.918l18.114,11.791c2.305,1.5,5.286,1.703,6.713,0.559
			C197.278,102.049,200.663,99.578,200.663,99.578z"/>
		<path d="M318.8,105.424c2.06,1.822,5.572,2.336,7.96,0.971l27.801-15.871c2.388-1.363,3.227-4.434,1.863-6.822l-1.487-2.604
			c-1.363-2.389-4.433-3.227-6.821-1.863l-31.901,18.213c-2.388,1.363-3.175,3.33-1.559,4.559
			C314.655,102.006,317.558,104.324,318.8,105.424z"/>
		<path d="M221.801,331.02c-0.126-0.203-12.875-20.254-36.642-8.295c-2.07,1.041-5.97,2.049-8.849-2.893
			c-0.834-1.432-2.671-1.916-4.102-1.082c-1.432,0.834-1.917,2.67-1.083,4.102c4.539,7.791,11.849,7.689,16.73,5.232
			c1.482-0.744,2.905-1.332,4.271-1.791c0.359-0.121,0.573,0.221,0.35,0.521c-1.202,1.615-1.916,3.613-1.917,5.783
			c0,5.371,4.355,9.727,9.728,9.727c5.373,0,9.728-4.355,9.728-9.727c0-1.9-0.552-3.668-1.495-5.166
			c-0.135-0.213,0.087-0.373,0.336-0.242c5.005,2.617,7.628,6.652,7.844,6.992c0.568,0.914,1.547,1.416,2.55,1.416
			c0.538,0,1.083-0.145,1.574-0.449C222.235,334.279,222.672,332.43,221.801,331.02z"/>
		<path d="M292.502,331.02c0.126-0.203,12.875-20.254,36.642-8.295c2.07,1.041,5.97,2.049,8.849-2.893
			c0.834-1.432,2.671-1.916,4.102-1.082c1.432,0.834,1.917,2.67,1.083,4.102c-4.539,7.791-11.849,7.689-16.73,5.232
			c-1.482-0.744-2.905-1.332-4.271-1.791c-0.359-0.121-0.573,0.221-0.35,0.521c1.202,1.615,1.916,3.613,1.917,5.783
			c0,5.371-4.355,9.727-9.728,9.727c-5.373,0-9.728-4.355-9.728-9.727c0-1.9,0.552-3.668,1.495-5.166
			c0.135-0.213-0.087-0.373-0.336-0.242c-5.005,2.617-7.628,6.652-7.844,6.992c-0.568,0.914-1.547,1.416-2.55,1.416
			c-0.538,0-1.083-0.145-1.574-0.449C292.068,334.279,291.632,332.43,292.502,331.02z"/>
	</g>
</g>
</svg>
